<svg xmlns="http://www.w3.org/2000/svg" xmlns:xlink="http://www.w3.org/1999/xlink" width="285.248" height="117.237" viewBox="0 0 285.248 117.237">
  <defs>
    <linearGradient id="linear-gradient" x1="0.457" y1="32.899" x2="1.231" y2="32.269" gradientUnits="objectBoundingBox">
      <stop offset="0" stop-color="#00652f"/>
      <stop offset="0.19" stop-color="#13802a"/>
      <stop offset="0.42" stop-color="#2fa822"/>
      <stop offset="0.6" stop-color="#2ea724"/>
      <stop offset="0.67" stop-color="#2ca52b"/>
      <stop offset="0.72" stop-color="#29a136"/>
      <stop offset="0.75" stop-color="#249b47"/>
      <stop offset="0.79" stop-color="#1d945d"/>
      <stop offset="0.82" stop-color="#158b79"/>
      <stop offset="0.84" stop-color="#0b8096"/>
      <stop offset="0.86" stop-color="#0176ba"/>
      <stop offset="0.87" stop-color="#0075bc"/>
      <stop offset="0.99" stop-color="#005b95"/>
    </linearGradient>
    <linearGradient id="linear-gradient-2" x1="0.295" y1="32.988" x2="1.487" y2="32.265" gradientUnits="objectBoundingBox">
      <stop offset="0" stop-color="#022085"/>
      <stop offset="0.11" stop-color="#083c97"/>
      <stop offset="0.35" stop-color="#1881c5"/>
      <stop offset="0.42" stop-color="#1e9ad5"/>
      <stop offset="0.66" stop-color="#1d98d4"/>
      <stop offset="0.75" stop-color="#1791cf"/>
      <stop offset="0.81" stop-color="#0e86c8"/>
      <stop offset="0.86" stop-color="#0177bd"/>
      <stop offset="0.87" stop-color="#0075bc"/>
      <stop offset="0.99" stop-color="#005b95"/>
    </linearGradient>
    <linearGradient id="linear-gradient-3" x1="0.502" y1="12.55" x2="0.5" y2="13.464" gradientUnits="objectBoundingBox">
      <stop offset="0" stop-color="#001780"/>
      <stop offset="0.35" stop-color="#146eb7"/>
      <stop offset="0.56" stop-color="#1e9ad5"/>
      <stop offset="0.64" stop-color="#1893d0"/>
      <stop offset="0.77" stop-color="#0980c3"/>
      <stop offset="0.82" stop-color="#0075bc"/>
      <stop offset="0.99" stop-color="#005b95"/>
    </linearGradient>
    <linearGradient id="linear-gradient-4" x1="0.5" y1="12.56" x2="0.5" y2="13.464" gradientUnits="objectBoundingBox">
      <stop offset="0.03" stop-color="#00652f"/>
      <stop offset="0.17" stop-color="#056a2f"/>
      <stop offset="0.35" stop-color="#15782e"/>
      <stop offset="0.54" stop-color="#2f8d2d"/>
      <stop offset="0.56" stop-color="#32902d"/>
      <stop offset="0.72" stop-color="#308e2d"/>
      <stop offset="0.99" stop-color="#00652e"/>
    </linearGradient>
  </defs>
  <g id="Layer_1-2" data-name="Layer 1-2" transform="translate(0 0)">
    <path id="Caminho_7348" data-name="Caminho 7348" d="M215.683,80.763V59.691c0-1.068,0-2.182.092-3.248.418-4.688,3.249-7.613,7.936-7.659,10.211-.139,20.421-.046,30.632-.092,1.254,0,1.347.51,1.347,1.531-.046,2.182-.092,4.317,0,6.5.046,1.347-.418,1.672-1.718,1.672q-9.746-.069-19.492,0c-.929,0-1.857,0-2.786.046-3.017.139-3.852.974-3.9,3.944-.046,3.806.046,7.565-.046,11.372-.046,1.438.51,1.578,1.763,1.578,7.751-.046,15.455.046,23.207-.094,1.81-.046,2.228.511,2.089,2.182a40.085,40.085,0,0,0,0,5.8c.092,1.485-.465,1.763-1.81,1.763-7.751-.046-15.455.046-23.207-.092-1.624,0-2.088.418-2,2.043.139,4.083,0,8.168.046,12.3.046,2.971.928,3.9,3.9,3.9,7.426.046,14.853.092,22.279,0,1.763,0,2.274.464,2.134,2.18a37.329,37.329,0,0,0,0,5.57c.14,1.718-.51,2-2.088,1.949-9.608-.046-19.168,0-28.776-.046-6.544,0-9.468-2.877-9.56-9.468-.092-7.473,0-14.991,0-22.464Z" transform="translate(-25.858 -23.583)" fill="#727277"/>
    <path id="Caminho_7349" data-name="Caminho 7349" d="M280.935,112.708c-4.548-.046-9.143.233-13.645-.6-9-1.624-14.666-6.961-16.615-15.873a72.84,72.84,0,0,1-.231-29.889c2.274-11.324,9.189-17.081,20.839-17.544,6.08-.231,12.206-.046,18.333-.139,1.3,0,1.531.418,1.484,1.578q-.139,3.134,0,6.266c.094,1.391-.324,1.857-1.809,1.857q-6.614-.069-13.227.139a22.945,22.945,0,0,0-4.363.6,10.884,10.884,0,0,0-9,9.1,64.694,64.694,0,0,0-.233,23.717c1.3,7.473,5.385,10.628,13.46,11,4.688.233,9.422.185,14.156.092,1.67-.046,2.134.464,2.042,2.089a40.486,40.486,0,0,0,0,5.8c.14,1.578-.51,1.9-1.949,1.857C287.108,112.661,284,112.708,280.935,112.708Z" transform="translate(-12.488 -23.596)" fill="#727277"/>
    <path id="Caminho_7350" data-name="Caminho 7350" d="M223.382,92.979c-.325-5.987-2.459-10.443-7.611-12.763a12.034,12.034,0,0,0,4.41-4.873c5.058-10.861-.464-23.624-10.674-24.459-8.727-.7-17.452-.14-26.177-.325-1.485-.046-1.253,1.068-1.253,2.088q.069,28.683-.046,57.412c0,1.67.371,2,1.716,2,6.266-.092,12.485,0,18.751-.046a56.928,56.928,0,0,0,10.118-.464c6.034-1.114,9.607-5.06,10.582-11.975A34.459,34.459,0,0,0,223.382,92.979ZM193.865,61.093c0-1.16.233-1.624,1.206-1.578,4.038.092,8.076,0,12.113.185,4.271.233,6.22,3.109,6.127,8.587-.094,5.337-2.089,7.936-6.312,8.169-1.949.092-3.9,0-5.895,0v.092c-2.042,0-4.038-.046-6.034.046-.974.046-1.253-.371-1.206-1.532C193.911,70.328,193.911,65.734,193.865,61.093ZM213.5,100.311c-1.3,2.413-3.481,2.738-5.57,2.878s-4.269.046-6.4.046v.046c-2.134,0-4.269-.046-6.451.046-.974.046-1.206-.418-1.206-1.578q.069-7.518,0-15.038c0-1.206.279-1.578,1.206-1.531,4.363.092,8.679,0,13.042.092,2.553.092,5.012.881,6.034,4.223A13.9,13.9,0,0,1,213.5,100.311Z" transform="translate(-39.359 -22.85)" fill="#727277"/>
    <path id="Caminho_7351" data-name="Caminho 7351" d="M139.988,111.349q-11.209-29.656-22.371-59.36a1.815,1.815,0,0,0-2-1.393c-3.434.046-6.822.139-10.211-.046-1.625-.092-2.274.556-2.786,2Q96.36,69.393,90,86.241c-3.249,8.539-6.451,17.079-9.793,25.851,3.944,0,7.611-.046,11.278.046,1.068,0,1.206-.695,1.485-1.438,1.345-3.759,2.738-7.519,4.037-11.278A2.153,2.153,0,0,1,99.47,97.7c7.24.092,14.528.092,21.814,0a2.137,2.137,0,0,1,2.413,1.764c1.254,3.806,2.692,7.519,3.992,11.324.325.881.7,1.345,1.764,1.345,3.573-.092,7.1-.046,10.674-.046C140.081,111.86,140.034,111.581,139.988,111.349ZM118.638,88.84c-5.941-.048-11.882,0-18.147,0l9.7-27.384c3.2,8.958,6.266,17.5,9.329,25.991C119.937,88.375,119.891,88.84,118.638,88.84Z" transform="translate(-80.209 -22.841)" fill="#727277"/>
    <text id="_" data-name=" " transform="translate(110.979 98.505)" fill="#fff" font-size="5" font-family="ArialMT, Arial" letter-spacing="-0.04em" style="isolation: isolate"><tspan x="0" y="0"> </tspan></text>
    <g id="Grupo_1041" data-name="Grupo 1041" transform="translate(0 92.174)">
      <path id="Caminho_7352" data-name="Caminho 7352" d="M141.674,107.519a6.794,6.794,0,0,1-.464,1.578l-.883,2.413h2.786l-.881-2.274C142,108.54,141.812,107.983,141.674,107.519Z" transform="translate(-56.09 -92.156)" fill="#727277"/>
      <path id="Caminho_7353" data-name="Caminho 7353" d="M209.915,99.49a4.531,4.531,0,0,0-1.393-.186h-1.716v6.312h1.763a4.831,4.831,0,0,0,1.3-.139,1.662,1.662,0,0,0,.743-.418,2.486,2.486,0,0,0,.6-1.021,5.121,5.121,0,0,0,.233-1.578,3.875,3.875,0,0,0-.418-2A2.228,2.228,0,0,0,209.915,99.49Z" transform="translate(-29.419 -95.452)" fill="#727277"/>
      <path id="Caminho_7354" data-name="Caminho 7354" d="M202.919,99.238a6.8,6.8,0,0,1-.464,1.578l-.883,2.414h2.786l-.883-2.274C203.244,100.259,203.057,99.7,202.919,99.238Z" transform="translate(-31.519 -95.479)" fill="#727277"/>
      <path id="Caminho_7355" data-name="Caminho 7355" d="M119.084,99.238a6.8,6.8,0,0,1-.464,1.578l-.883,2.414h2.786l-.883-2.274C119.409,100.259,119.222,99.7,119.084,99.238Z" transform="translate(-65.153 -95.479)" fill="#727277"/>
      <path id="Caminho_7356" data-name="Caminho 7356" d="M209.433,107.871a2.649,2.649,0,0,0-1.485-.418,2.84,2.84,0,0,0-2,.789,3.469,3.469,0,0,0-.837,2.645,3.548,3.548,0,0,0,.79,2.367,2.7,2.7,0,0,0,2,.835,2.608,2.608,0,0,0,2.041-.881,3.416,3.416,0,0,0,.789-2.46,4.259,4.259,0,0,0-.325-1.763A3.182,3.182,0,0,0,209.433,107.871Z" transform="translate(-30.097 -92.183)" fill="#727277"/>
      <path id="Caminho_7357" data-name="Caminho 7357" d="M126.875,107.677a4.4,4.4,0,0,0-1.021-.092h-2.088v2.924H125.9a2.389,2.389,0,0,0,1.484-.371,1.538,1.538,0,0,0,.465-1.114,1.429,1.429,0,0,0-.279-.881A1.1,1.1,0,0,0,126.875,107.677Z" transform="translate(-62.734 -92.13)" fill="#727277"/>
      <path id="Caminho_7358" data-name="Caminho 7358" d="M130.247,107.519a6.8,6.8,0,0,1-.465,1.578l-.881,2.413h2.784l-.881-2.274C130.57,108.54,130.385,107.983,130.247,107.519Z" transform="translate(-60.675 -92.156)" fill="#727277"/>
      <path id="Caminho_7359" data-name="Caminho 7359" d="M130.477,99.238a6.726,6.726,0,0,1-.464,1.578l-.881,2.414h2.784l-.881-2.274C130.8,100.259,130.617,99.7,130.477,99.238Z" transform="translate(-60.581 -95.479)" fill="#727277"/>
      <path id="Caminho_7360" data-name="Caminho 7360" d="M138.264,109.641a1.4,1.4,0,0,0,.233-.743,1.336,1.336,0,0,0-.418-.975,2.116,2.116,0,0,0-1.347-.371h-2.6v2.738h2.322a3.763,3.763,0,0,0,1.16-.139A1.243,1.243,0,0,0,138.264,109.641Z" transform="translate(-58.575 -92.143)" fill="#727277"/>
      <path id="Caminho_7361" data-name="Caminho 7361" d="M179.033,102.514a4.284,4.284,0,0,0-.324-1.764,2.689,2.689,0,0,0-.975-1.16,2.646,2.646,0,0,0-1.485-.418,2.846,2.846,0,0,0-2,.789,3.471,3.471,0,0,0-.835,2.645,3.545,3.545,0,0,0,.789,2.367,2.694,2.694,0,0,0,2,.835,2.6,2.6,0,0,0,2.042-.881A3.347,3.347,0,0,0,179.033,102.514Z" transform="translate(-42.814 -95.505)" fill="#727277"/>
      <path id="Caminho_7362" data-name="Caminho 7362" d="M164.264,99.238a6.8,6.8,0,0,1-.464,1.578l-.883,2.414H165.7l-.881-2.274C164.589,100.259,164.4,99.7,164.264,99.238Z" transform="translate(-47.027 -95.479)" fill="#727277"/>
      <path id="Caminho_7363" data-name="Caminho 7363" d="M171.772,101.857a1.542,1.542,0,0,0,.464-1.114,1.42,1.42,0,0,0-.279-.881,1.165,1.165,0,0,0-.7-.464,4.3,4.3,0,0,0-1.021-.094h-2.088v2.924h2.135A1.971,1.971,0,0,0,171.772,101.857Z" transform="translate(-44.927 -95.452)" fill="#727277"/>
      <path id="Caminho_7364" data-name="Caminho 7364" d="M146.153,99.49a4.532,4.532,0,0,0-1.393-.186h-1.716v6.312h1.763a4.83,4.83,0,0,0,1.3-.139,1.662,1.662,0,0,0,.743-.418,2.5,2.5,0,0,0,.6-1.021,5.121,5.121,0,0,0,.233-1.578,3.875,3.875,0,0,0-.418-2A2.387,2.387,0,0,0,146.153,99.49Z" transform="translate(-55 -95.452)" fill="#727277"/>
      <path id="Caminho_7365" data-name="Caminho 7365" d="M189.327,107.871a2.645,2.645,0,0,0-1.485-.418,2.84,2.84,0,0,0-2,.789,3.469,3.469,0,0,0-.835,2.645,3.547,3.547,0,0,0,.789,2.367,2.7,2.7,0,0,0,2,.835,2.608,2.608,0,0,0,2.042-.881,3.416,3.416,0,0,0,.79-2.46,4.282,4.282,0,0,0-.325-1.763A2.48,2.48,0,0,0,189.327,107.871Z" transform="translate(-38.163 -92.183)" fill="#727277"/>
      <path id="Caminho_7366" data-name="Caminho 7366" d="M150.121,109.985a1.567,1.567,0,0,0,.65-.418.911.911,0,0,0,.231-.695,1.363,1.363,0,0,0-.185-.743,1,1,0,0,0-.558-.419,4.21,4.21,0,0,0-1.253-.092h-1.624v2.507h1.763A9.157,9.157,0,0,0,150.121,109.985Z" transform="translate(-53.259 -92.117)" fill="#727277"/>
      <path id="Caminho_7367" data-name="Caminho 7367" d="M150.427,110.209a4.052,4.052,0,0,0-1.208-.14h-1.9V112.9h2.043a2.9,2.9,0,0,0,.743-.046,2.719,2.719,0,0,0,.65-.233,1.026,1.026,0,0,0,.418-.464,1.544,1.544,0,0,0,.185-.7,1.443,1.443,0,0,0-.231-.789A1.428,1.428,0,0,0,150.427,110.209Z" transform="translate(-53.286 -91.133)" fill="#727277"/>
      <path id="Caminho_7368" data-name="Caminho 7368" d="M138.45,99.59a2.649,2.649,0,0,0-1.485-.418,2.846,2.846,0,0,0-2,.789,3.471,3.471,0,0,0-.837,2.645,3.545,3.545,0,0,0,.79,2.367,2.694,2.694,0,0,0,2,.835,2.6,2.6,0,0,0,2.042-.881,3.55,3.55,0,0,0,.789-2.459,4.262,4.262,0,0,0-.325-1.764A3.194,3.194,0,0,0,138.45,99.59Z" transform="translate(-58.575 -95.505)" fill="#727277"/>
      <path id="Caminho_7369" data-name="Caminho 7369" d="M106.95,99.59a2.649,2.649,0,0,0-1.485-.418,2.852,2.852,0,0,0-2,.789,3.477,3.477,0,0,0-.835,2.645,3.552,3.552,0,0,0,.789,2.367,2.7,2.7,0,0,0,2,.835,2.6,2.6,0,0,0,2.042-.881,3.556,3.556,0,0,0,.789-2.459,4.262,4.262,0,0,0-.325-1.764A3.194,3.194,0,0,0,106.95,99.59Z" transform="translate(-71.213 -95.505)" fill="#727277"/>
      <path id="Caminho_7370" data-name="Caminho 7370" d="M88.048,99.238a6.8,6.8,0,0,1-.465,1.578L86.7,103.23h2.784l-.881-2.274A17.426,17.426,0,0,1,88.048,99.238Z" transform="translate(-77.604 -95.479)" fill="#727277"/>
      <path id="Caminho_7371" data-name="Caminho 7371" d="M252.205,99.238a6.729,6.729,0,0,1-.464,1.578l-.881,2.414h2.784l-.881-2.274C252.53,100.259,252.345,99.7,252.205,99.238Z" transform="translate(-11.745 -95.479)" fill="#727277"/>
      <path id="Caminho_7372" data-name="Caminho 7372" d="M238.648,107.871a2.652,2.652,0,0,0-1.485-.418,2.845,2.845,0,0,0-2,.789,3.475,3.475,0,0,0-.835,2.645,3.555,3.555,0,0,0,.789,2.367,2.7,2.7,0,0,0,2,.835,2.61,2.61,0,0,0,2.042-.881,3.56,3.56,0,0,0,.789-2.46,4.259,4.259,0,0,0-.325-1.763A3.181,3.181,0,0,0,238.648,107.871Z" transform="translate(-18.376 -92.183)" fill="#727277"/>
      <path id="Caminho_7373" data-name="Caminho 7373" d="M80.209,96.555v25.063H365.457V96.555Zm221.709,2.878h6.545v.974h-2.739v7.288h-1.066v-7.288h-2.692v-.974Zm-23.251,5.337a1.461,1.461,0,0,0-.743-.464,11.694,11.694,0,0,0-1.485-.418,8.846,8.846,0,0,1-1.578-.511,2.093,2.093,0,0,1-.883-.789,2,2,0,0,1-.279-1.021,2.155,2.155,0,0,1,.371-1.16,2.278,2.278,0,0,1,1.021-.835,4.1,4.1,0,0,1,1.532-.279,4.435,4.435,0,0,1,1.625.279,2.015,2.015,0,0,1,1.066.881,3.059,3.059,0,0,1,.418,1.3l-1.066.092a1.549,1.549,0,0,0-.558-1.16,2.128,2.128,0,0,0-1.439-.418,2.319,2.319,0,0,0-1.438.371,1.006,1.006,0,0,0-.465.881.925.925,0,0,0,.325.743,5.115,5.115,0,0,0,1.624.6,10.537,10.537,0,0,1,1.81.51,2.874,2.874,0,0,1,1.068.835,1.99,1.99,0,0,1,.325,1.16,2.591,2.591,0,0,1-.371,1.254,2.249,2.249,0,0,1-1.068.881,3.554,3.554,0,0,1-1.578.325,4.288,4.288,0,0,1-1.857-.325,2.676,2.676,0,0,1-1.67-2.459l1.02-.094a2.222,2.222,0,0,0,.325,1.021,2.028,2.028,0,0,0,.835.65,2.763,2.763,0,0,0,1.254.231,2.819,2.819,0,0,0,1.114-.185,1.313,1.313,0,0,0,.928-1.206A.89.89,0,0,0,278.667,104.77Zm-13.089-4.317a3.676,3.676,0,0,1,2.83-1.16,3.86,3.86,0,0,1,2.043.558,3.709,3.709,0,0,1,1.393,1.532,5.334,5.334,0,0,1-.048,4.456,3.427,3.427,0,0,1-1.438,1.485,4.27,4.27,0,0,1-2,.51,3.9,3.9,0,0,1-2.088-.556,3.7,3.7,0,0,1-1.393-1.533,4.521,4.521,0,0,1-.464-2.042A4.758,4.758,0,0,1,265.578,100.453Zm-38.939-1.02h5.94v.974h-4.873v2.507h4.548v.975h-4.548v2.784h5.06v.975h-6.126V99.433Zm-50.45,1.02a3.677,3.677,0,0,1,2.83-1.16,3.86,3.86,0,0,1,2.043.558,3.706,3.706,0,0,1,1.391,1.532,5.341,5.341,0,0,1-.046,4.456,3.43,3.43,0,0,1-1.439,1.485,4.26,4.26,0,0,1-2,.51,3.907,3.907,0,0,1-2.089-.556,3.71,3.71,0,0,1-1.391-1.533,4.521,4.521,0,0,1-.464-2.042A5.255,5.255,0,0,1,176.189,100.453Zm-27.476-2.459a1.083,1.083,0,0,1,.835-.371,1.842,1.842,0,0,1,.928.325,2.364,2.364,0,0,0,.511.185.391.391,0,0,0,.277-.092.992.992,0,0,0,.14-.371h.743a1.539,1.539,0,0,1-.325.975.958.958,0,0,1-.789.324,1.856,1.856,0,0,1-.929-.324,1.1,1.1,0,0,0-.556-.186.423.423,0,0,0-.325.139.572.572,0,0,0-.139.419h-.743A1.575,1.575,0,0,1,148.713,97.994Zm-55.323,9.7-.975-2.507H88.98l-.881,2.507h-1.16l3.155-8.261h1.16l3.388,8.261Zm7.936-1.068a2.249,2.249,0,0,1-1.068.881,3.554,3.554,0,0,1-1.578.325,4.288,4.288,0,0,1-1.857-.325,3.116,3.116,0,0,1-1.206-.974,2.684,2.684,0,0,1-.464-1.485l1.02-.094a2.222,2.222,0,0,0,.325,1.021,2.028,2.028,0,0,0,.835.65,2.759,2.759,0,0,0,1.254.231,2.819,2.819,0,0,0,1.114-.185,1.318,1.318,0,0,0,.928-1.206,1.242,1.242,0,0,0-.233-.7,1.455,1.455,0,0,0-.743-.464,11.574,11.574,0,0,0-1.484-.418,8.914,8.914,0,0,1-1.579-.511,2.081,2.081,0,0,1-.881-.789,1.983,1.983,0,0,1-.279-1.021,2.155,2.155,0,0,1,.371-1.16,2.278,2.278,0,0,1,1.021-.835,4.1,4.1,0,0,1,1.532-.279,4.422,4.422,0,0,1,1.624.279,2.013,2.013,0,0,1,1.068.881,3.06,3.06,0,0,1,.418,1.3l-1.068.092a1.548,1.548,0,0,0-.556-1.16,2.128,2.128,0,0,0-1.439-.418,2.324,2.324,0,0,0-1.439.371,1.124,1.124,0,0,0-.464.881.921.921,0,0,0,.325.743,5.115,5.115,0,0,0,1.624.6,10.537,10.537,0,0,1,1.81.51,2.886,2.886,0,0,1,1.068.835,1.99,1.99,0,0,1,.325,1.16A2.118,2.118,0,0,1,101.326,106.627Zm7.658,0a2.236,2.236,0,0,1-1.068.881,3.55,3.55,0,0,1-1.578.325,4.292,4.292,0,0,1-1.857-.325,3.117,3.117,0,0,1-1.206-.974,2.684,2.684,0,0,1-.464-1.485l1.021-.094a2.222,2.222,0,0,0,.324,1.021,2.033,2.033,0,0,0,.837.65,2.757,2.757,0,0,0,1.253.231,2.819,2.819,0,0,0,1.114-.185,1.313,1.313,0,0,0,.928-1.206,1.251,1.251,0,0,0-.231-.7,1.461,1.461,0,0,0-.743-.464,11.7,11.7,0,0,0-1.485-.418,8.848,8.848,0,0,1-1.578-.511,2.093,2.093,0,0,1-.883-.789,2,2,0,0,1-.277-1.021,2.143,2.143,0,0,1,.371-1.16,2.267,2.267,0,0,1,1.02-.835,4.108,4.108,0,0,1,1.532-.279,4.435,4.435,0,0,1,1.625.279,2.015,2.015,0,0,1,1.066.881,3.081,3.081,0,0,1,.419,1.3l-1.068.092a1.549,1.549,0,0,0-.558-1.16,2.128,2.128,0,0,0-1.439-.418,2.319,2.319,0,0,0-1.438.371,1.122,1.122,0,0,0-.465.881.925.925,0,0,0,.325.743,5.113,5.113,0,0,0,1.625.6,10.511,10.511,0,0,1,1.809.51,2.864,2.864,0,0,1,1.068.835,1.99,1.99,0,0,1,.325,1.16A2.117,2.117,0,0,1,108.984,106.627Zm8.912-.789a3.43,3.43,0,0,1-1.439,1.485,4.264,4.264,0,0,1-2,.51,3.907,3.907,0,0,1-2.089-.556,3.7,3.7,0,0,1-1.391-1.533,4.523,4.523,0,0,1-.465-2.042,4.405,4.405,0,0,1,1.114-3.2,3.676,3.676,0,0,1,2.832-1.162,3.852,3.852,0,0,1,2.042.558,3.7,3.7,0,0,1,1.393,1.531,4.91,4.91,0,0,1,.464,2.228A4.408,4.408,0,0,1,117.9,105.838Zm7.658,1.3a3.41,3.41,0,0,1-2.182.7,3.908,3.908,0,0,1-2.18-.556,3.3,3.3,0,0,1-1.254-1.579,5.959,5.959,0,0,1-.418-2.228,4.783,4.783,0,0,1,.511-2.228,3.215,3.215,0,0,1,1.391-1.438,4.118,4.118,0,0,1,2-.511,3.392,3.392,0,0,1,2.088.65,3.123,3.123,0,0,1,1.16,1.764l-1.068.231a2.442,2.442,0,0,0-.835-1.3,2.253,2.253,0,0,0-1.393-.418,2.453,2.453,0,0,0-1.578.464,2.288,2.288,0,0,0-.881,1.206,4.508,4.508,0,0,0-.279,1.578,4.716,4.716,0,0,0,.325,1.857,2.013,2.013,0,0,0,.975,1.16,2.661,2.661,0,0,0,2.923-.139,3.075,3.075,0,0,0,.883-1.578l1.068.279A4.2,4.2,0,0,1,125.553,107.137Zm3.852.558h-1.066V99.433H129.4Zm7.473,0-.974-2.507h-3.434l-.883,2.507h-1.16l3.157-8.261h1.16l3.388,8.261Zm2.228-2a5.933,5.933,0,0,1-.418-2.228,4.8,4.8,0,0,1,.51-2.228,3.225,3.225,0,0,1,1.393-1.438,4.112,4.112,0,0,1,2-.511,3.4,3.4,0,0,1,2.089.65,3.13,3.13,0,0,1,1.16,1.764l-1.068.231a2.442,2.442,0,0,0-.835-1.3,2.253,2.253,0,0,0-1.393-.418,2.453,2.453,0,0,0-1.578.464,2.289,2.289,0,0,0-.881,1.206,4.508,4.508,0,0,0-.279,1.578,4.716,4.716,0,0,0,.325,1.857,2.016,2.016,0,0,0,.974,1.16,2.663,2.663,0,0,0,2.924-.139,3.076,3.076,0,0,0,.883-1.578l1.066.279a3.66,3.66,0,0,1-1.253,2.042,3.413,3.413,0,0,1-2.182.7l-.092.325a1.556,1.556,0,0,1,.743.277.75.75,0,0,1,.233.511.959.959,0,0,1-.418.743,1.875,1.875,0,0,1-1.208.325,4.017,4.017,0,0,1-.789-.046l.046-.65h.511a1.375,1.375,0,0,0,.743-.14c.092-.092.185-.185.185-.277a.282.282,0,0,0-.046-.186.994.994,0,0,0-.233-.139,1.752,1.752,0,0,0-.556-.046l.233-.789a3.552,3.552,0,0,1-1.439-.511A2.388,2.388,0,0,1,139.105,105.7Zm4.271,10.258h-2.135v3.34h-1.068v-8.261h3.109a7.676,7.676,0,0,1,1.254.094,2.213,2.213,0,0,1,1.02.371,1.8,1.8,0,0,1,.65.789,2.179,2.179,0,0,1,.233,1.114,2.578,2.578,0,0,1-.65,1.763A2.963,2.963,0,0,1,143.376,115.956Zm9.189,3.34-.975-2.505h-3.434l-.881,2.505h-1.16l3.156-8.261h1.16l3.388,8.261Zm.279-11.6-.975-2.507h-3.434l-.881,2.507h-1.16l3.155-8.261h1.16l3.388,8.261Zm7.7,11.6-1.068-1.716a12.815,12.815,0,0,0-.789-1.114,1.584,1.584,0,0,0-.556-.558,2.5,2.5,0,0,0-.511-.231,2.1,2.1,0,0,0-.6-.046h-1.254V119.3H154.7v-8.261h3.666a4.952,4.952,0,0,1,1.672.233,1.893,1.893,0,0,1,.928.789,2.3,2.3,0,0,1,.325,1.254,2.105,2.105,0,0,1-.556,1.484,2.7,2.7,0,0,1-1.764.743,2.634,2.634,0,0,1,.65.419,4.445,4.445,0,0,1,.881,1.114l1.439,2.226Zm.046-11.973a4.26,4.26,0,0,1-2,.51,3.907,3.907,0,0,1-2.089-.556,3.71,3.71,0,0,1-1.391-1.533,4.523,4.523,0,0,1-.465-2.042,4.405,4.405,0,0,1,1.114-3.2,3.676,3.676,0,0,1,2.832-1.162,3.852,3.852,0,0,1,2.042.558,3.7,3.7,0,0,1,1.393,1.531,5.341,5.341,0,0,1-.046,4.456A3.214,3.214,0,0,1,160.594,107.323ZM168.53,119.3l-.974-2.505h-3.434l-.883,2.505h-1.16l3.157-8.261h1.16l3.388,8.261Zm3.9-12.16a3.077,3.077,0,0,1-.975.418,5.727,5.727,0,0,1-1.347.14h-2.969V99.433h2.83a6.194,6.194,0,0,1,1.485.139,2.694,2.694,0,0,1,1.206.6,3.783,3.783,0,0,1,.975,1.391,5.076,5.076,0,0,1,.325,1.95,6.335,6.335,0,0,1-.233,1.67,3.655,3.655,0,0,1-.556,1.206A3.747,3.747,0,0,1,172.43,107.137ZM179.16,118a2.712,2.712,0,0,1-.6.789,2.581,2.581,0,0,1-.881.418,5.468,5.468,0,0,1-1.347.14h-3.156v-8.261h3.109a4.638,4.638,0,0,1,1.532.231,1.828,1.828,0,0,1,.881.789,1.8,1.8,0,0,1,.325,1.068,1.713,1.713,0,0,1-.279.975,1.772,1.772,0,0,1-.881.743,2.293,2.293,0,0,1,1.16.743,1.941,1.941,0,0,1,.418,1.253A3.933,3.933,0,0,1,179.16,118Zm7.889,1.3h-6.126v-8.261h5.941v.975H181.99v2.507h4.548v.974H181.99v2.786h5.058Zm-1.391-11.788a3.1,3.1,0,0,1-1.206-.974,2.685,2.685,0,0,1-.465-1.485l1.021-.094a2.206,2.206,0,0,0,.325,1.021,2.019,2.019,0,0,0,.835.65,2.757,2.757,0,0,0,1.253.231,2.81,2.81,0,0,0,1.114-.185,1.317,1.317,0,0,0,.929-1.206,1.242,1.242,0,0,0-.233-.7,1.455,1.455,0,0,0-.743-.464,11.619,11.619,0,0,0-1.485-.418,8.888,8.888,0,0,1-1.578-.511,2.081,2.081,0,0,1-.881-.789,1.983,1.983,0,0,1-.279-1.021,2.143,2.143,0,0,1,.371-1.16,2.278,2.278,0,0,1,1.021-.835,4.1,4.1,0,0,1,1.532-.279,4.427,4.427,0,0,1,1.624.279,2.024,2.024,0,0,1,1.068.881,3.06,3.06,0,0,1,.418,1.3l-1.068.092a1.548,1.548,0,0,0-.556-1.16,2.128,2.128,0,0,0-1.439-.418,2.324,2.324,0,0,0-1.439.371,1.12,1.12,0,0,0-.464.881.921.921,0,0,0,.325.743,5.1,5.1,0,0,0,1.624.6,10.578,10.578,0,0,1,1.81.51,2.886,2.886,0,0,1,1.068.835,2,2,0,0,1,.325,1.16,2.606,2.606,0,0,1-.371,1.254,2.249,2.249,0,0,1-1.068.881,3.554,3.554,0,0,1-1.578.325A4.341,4.341,0,0,1,185.657,107.508Zm9.375,11.788h-1.114l-4.317-6.5v6.5h-1.068v-8.261h1.114l4.317,6.452v-6.452h1.068Zm-.14-11.6h-1.16l3.157-8.261h1.16l3.388,8.261h-1.254l-.974-2.507h-3.434Zm8.169,11.6h-6.126v-8.261h5.94v.975H198v2.507h4.548v.974H198v2.786h5.058Zm.325-11.6h-1.068V99.433h3.109a7.713,7.713,0,0,1,1.254.092,2.214,2.214,0,0,1,1.02.371,1.8,1.8,0,0,1,.65.789,2.18,2.18,0,0,1,.233,1.114,2.584,2.584,0,0,1-.65,1.764,3.326,3.326,0,0,1-2.414.743h-2.134v3.388Zm6.776,4.316h-4.456v2.553h3.852v.974h-3.852V119.3h-1.114v-8.261h5.57Zm2.692,7.286h-1.068v-8.261h1.068Zm-.51-8.725h-.837l.743-1.578H213.6Zm-.837-3.294a3.71,3.71,0,0,1-1.391-1.533,4.522,4.522,0,0,1-.465-2.042,4.4,4.4,0,0,1,1.114-3.2,3.676,3.676,0,0,1,2.832-1.162,3.852,3.852,0,0,1,2.042.558,3.7,3.7,0,0,1,1.393,1.531,5.341,5.341,0,0,1-.046,4.456,3.422,3.422,0,0,1-1.439,1.485,4.248,4.248,0,0,1-2,.51A4.389,4.389,0,0,1,211.508,107.277Zm9,11.463a3.41,3.41,0,0,1-2.182.7,3.9,3.9,0,0,1-2.18-.558A3.3,3.3,0,0,1,214.9,117.3a5.965,5.965,0,0,1-.418-2.228,4.783,4.783,0,0,1,.511-2.228,3.218,3.218,0,0,1,1.391-1.439,4.132,4.132,0,0,1,2-.51,3.393,3.393,0,0,1,2.088.65,3.123,3.123,0,0,1,1.16,1.764l-1.068.231a2.437,2.437,0,0,0-.835-1.3,2.253,2.253,0,0,0-1.393-.418,2.453,2.453,0,0,0-1.578.464,2.288,2.288,0,0,0-.881,1.206,4.5,4.5,0,0,0-.279,1.578,4.716,4.716,0,0,0,.325,1.857,2.022,2.022,0,0,0,.975,1.16,2.661,2.661,0,0,0,2.923-.139,3.066,3.066,0,0,0,.883-1.578l1.068.277A3.639,3.639,0,0,1,220.512,118.74Zm3.853.556H223.3v-8.261h1.068Zm.37-12.67a2.239,2.239,0,0,1-1.066.881,4.342,4.342,0,0,1-1.579.325,4.285,4.285,0,0,1-1.855-.325,3.11,3.11,0,0,1-1.208-.974,2.684,2.684,0,0,1-.464-1.485l1.021-.094a2.206,2.206,0,0,0,.325,1.021,2.019,2.019,0,0,0,.835.65,2.757,2.757,0,0,0,1.253.231,2.819,2.819,0,0,0,1.114-.185,1.37,1.37,0,0,0,.7-.51,1.392,1.392,0,0,0,.233-.7,1.253,1.253,0,0,0-.233-.7,1.454,1.454,0,0,0-.743-.464,11.694,11.694,0,0,0-1.485-.418,8.888,8.888,0,0,1-1.578-.511,2.08,2.08,0,0,1-.881-.789,1.983,1.983,0,0,1-.279-1.021,2.143,2.143,0,0,1,.371-1.16,2.263,2.263,0,0,1,1.021-.835,4.1,4.1,0,0,1,1.532-.279,4.427,4.427,0,0,1,1.624.279,2.024,2.024,0,0,1,1.068.881,3.079,3.079,0,0,1,.418,1.3l-1.068.092a1.553,1.553,0,0,0-.556-1.16,2.131,2.131,0,0,0-1.439-.418,2.324,2.324,0,0,0-1.439.371,1.12,1.12,0,0,0-.464.881.921.921,0,0,0,.325.743,5.1,5.1,0,0,0,1.624.6,10.579,10.579,0,0,1,1.81.51,2.869,2.869,0,0,1,1.066.835,1.99,1.99,0,0,1,.325,1.16A1.613,1.613,0,0,1,224.735,106.627Zm8.586,10.813a3.414,3.414,0,0,1-1.439,1.485,4.245,4.245,0,0,1-2,.511,3.9,3.9,0,0,1-2.088-.558,3.7,3.7,0,0,1-1.393-1.532,4.521,4.521,0,0,1-.464-2.042,4.409,4.409,0,0,1,1.114-3.2,4.028,4.028,0,0,1,4.873-.6,3.706,3.706,0,0,1,1.391,1.532,4.905,4.905,0,0,1,.465,2.228A3.951,3.951,0,0,1,233.322,117.44Zm.975-18.007h1.114l4.316,6.451V99.433h1.068v8.261H239.68l-4.316-6.5v6.5H234.3Zm6.776,18.8a2.257,2.257,0,0,1-1.068.881,4.364,4.364,0,0,1-1.578.325,4.288,4.288,0,0,1-1.857-.325,2.684,2.684,0,0,1-1.672-2.461l1.021-.092a2.222,2.222,0,0,0,.325,1.021,2.028,2.028,0,0,0,.835.65,2.759,2.759,0,0,0,1.254.231,2.819,2.819,0,0,0,1.114-.185,1.322,1.322,0,0,0,.928-1.206,1.242,1.242,0,0,0-.233-.7,1.465,1.465,0,0,0-.743-.465,12.058,12.058,0,0,0-1.485-.418,8.956,8.956,0,0,1-1.578-.51,2.089,2.089,0,0,1-.881-.789,1.983,1.983,0,0,1-.279-1.021,2.155,2.155,0,0,1,.371-1.16,2.269,2.269,0,0,1,1.021-.835,4.075,4.075,0,0,1,1.532-.279,4.393,4.393,0,0,1,1.624.279,2.007,2.007,0,0,1,1.068.881,3.054,3.054,0,0,1,.418,1.3l-1.068.092a1.545,1.545,0,0,0-.556-1.16,2.128,2.128,0,0,0-1.439-.418,2.324,2.324,0,0,0-1.439.371,1.122,1.122,0,0,0-.464.881.921.921,0,0,0,.325.743,5.151,5.151,0,0,0,1.624.6,18.015,18.015,0,0,1,1.81.51,2.872,2.872,0,0,1,1.068.835,2,2,0,0,1,.325,1.16A2.133,2.133,0,0,1,241.073,118.23Zm4.733-10.536H244.74v-7.288h-2.693v-.974h6.545v.974h-2.738v7.288Zm6.034,11.046a3.409,3.409,0,0,1-2.18.7,3.9,3.9,0,0,1-2.182-.558,3.285,3.285,0,0,1-1.253-1.578,5.938,5.938,0,0,1-.419-2.228,4.783,4.783,0,0,1,.511-2.228,3.226,3.226,0,0,1,1.391-1.439,4.132,4.132,0,0,1,2-.51,3.392,3.392,0,0,1,2.088.65,3.123,3.123,0,0,1,1.16,1.764l-1.066.231a2.446,2.446,0,0,0-.837-1.3,2.252,2.252,0,0,0-1.391-.418,2.458,2.458,0,0,0-1.579.464,2.289,2.289,0,0,0-.881,1.206,4.535,4.535,0,0,0-.279,1.578,4.742,4.742,0,0,0,.325,1.857,2.027,2.027,0,0,0,.975,1.16,2.663,2.663,0,0,0,2.924-.139,3.074,3.074,0,0,0,.881-1.578l1.068.277A3.639,3.639,0,0,1,251.84,118.74Zm-1.9-13.552-.881,2.507H247.9l3.156-8.261h1.16l3.388,8.261h-1.253l-.974-2.507Zm11.557,12.252a3.414,3.414,0,0,1-1.439,1.485,4.245,4.245,0,0,1-2,.511,3.908,3.908,0,0,1-2.089-.558,3.706,3.706,0,0,1-1.391-1.532,4.522,4.522,0,0,1-.465-2.042,4.409,4.409,0,0,1,1.114-3.2,4.028,4.028,0,0,1,4.873-.6,3.7,3.7,0,0,1,1.393,1.532,4.905,4.905,0,0,1,.464,2.228A4.4,4.4,0,0,1,261.494,117.44Zm1.578-12.252a4.159,4.159,0,0,1-.556,1.206,2.809,2.809,0,0,1-.743.743,3.077,3.077,0,0,1-.975.418,5.723,5.723,0,0,1-1.345.14h-2.971V99.433h2.83a6.194,6.194,0,0,1,1.485.139,2.687,2.687,0,0,1,1.206.6,3.765,3.765,0,0,1,.975,1.391,5.05,5.05,0,0,1,.325,1.95A5.771,5.771,0,0,1,263.072,105.188ZM268.5,119.3h-5.152v-8.261h1.068v7.288h4.038v.974Zm7.473,0h-6.127v-8.261h5.941v.975h-4.873v2.507h4.548v.974h-4.548v2.786h5.058v1.02Zm7.425-7.286h-2.738V119.3h-1.068V112.01H276.9v-.975h6.544v.975Zm1.16-12.577h1.625l1.949,5.847a10.248,10.248,0,0,1,.371,1.206c.092-.277.231-.743.418-1.3l2-5.755H292.4v8.261h-1.021v-6.916l-2.413,6.916h-.975l-2.367-7.009v7.009H284.56Zm1.208,19.863H284.7v-8.261h1.068Zm5.383,0h-1.114l-3.2-8.261h1.16l2.135,5.987a8.773,8.773,0,0,1,.418,1.347c.14-.464.279-.881.464-1.347l2.228-5.987h1.114ZM294.54,106.3a5.173,5.173,0,0,1-.325-2.089V99.433h1.068v4.733a4.549,4.549,0,0,0,.185,1.578,1.648,1.648,0,0,0,.7.79,2.449,2.449,0,0,0,1.206.277,2.247,2.247,0,0,0,1.718-.556,3.252,3.252,0,0,0,.51-2.089V99.433h1.068v4.779a5.874,5.874,0,0,1-.279,2,2.52,2.52,0,0,1-1.02,1.206,3.405,3.405,0,0,1-1.9.464,3.852,3.852,0,0,1-1.9-.418A2.461,2.461,0,0,1,294.54,106.3Zm7.89,11.138a3.414,3.414,0,0,1-1.439,1.485,4.254,4.254,0,0,1-2,.511,3.908,3.908,0,0,1-2.089-.558,3.7,3.7,0,0,1-1.393-1.532,4.54,4.54,0,0,1-.464-2.042,4.409,4.409,0,0,1,1.114-3.2,3.679,3.679,0,0,1,2.832-1.16,3.856,3.856,0,0,1,2.042.558,3.7,3.7,0,0,1,1.393,1.532,4.905,4.905,0,0,1,.464,2.228A4.4,4.4,0,0,1,302.43,117.44Zm7.7.79a2.243,2.243,0,0,1-1.068.881,3.55,3.55,0,0,1-1.578.325,4.288,4.288,0,0,1-1.857-.325,2.679,2.679,0,0,1-1.67-2.461l1.021-.092a2.222,2.222,0,0,0,.324,1.021,2.033,2.033,0,0,0,.837.65,2.756,2.756,0,0,0,1.253.231,2.819,2.819,0,0,0,1.114-.185,1.316,1.316,0,0,0,.928-1.206,1.251,1.251,0,0,0-.231-.7,1.471,1.471,0,0,0-.743-.465,12.226,12.226,0,0,0-1.485-.418,8.874,8.874,0,0,1-1.578-.51,2.1,2.1,0,0,1-.883-.789,2,2,0,0,1-.277-1.021,2.143,2.143,0,0,1,.371-1.16,2.257,2.257,0,0,1,1.02-.835,4.075,4.075,0,0,1,1.532-.279,4.406,4.406,0,0,1,1.625.279,2.009,2.009,0,0,1,1.066.881,3.075,3.075,0,0,1,.419,1.3l-1.068.092a1.546,1.546,0,0,0-.558-1.16,2.128,2.128,0,0,0-1.439-.418,2.319,2.319,0,0,0-1.438.371,1,1,0,0,0-.465.881.925.925,0,0,0,.325.743,5.149,5.149,0,0,0,1.625.6,10.554,10.554,0,0,1,1.809.51,2.849,2.849,0,0,1,1.068.835,1.99,1.99,0,0,1,.325,1.16A2.122,2.122,0,0,1,310.134,118.23Zm5.895-14.018a5.876,5.876,0,0,1-.279,2,2.516,2.516,0,0,1-1.021,1.206,3.4,3.4,0,0,1-1.9.464,3.85,3.85,0,0,1-1.9-.418,2.365,2.365,0,0,1-1.068-1.16,5.2,5.2,0,0,1-.324-2.089V99.433H310.6v4.733a4.542,4.542,0,0,0,.186,1.578,1.64,1.64,0,0,0,.7.79,2.449,2.449,0,0,0,1.206.277,2.247,2.247,0,0,0,1.718-.556,3.261,3.261,0,0,0,.51-2.089V99.433h1.068v4.779Zm7.379,3.482-.974-2.507H319l-.883,2.507h-1.16l3.157-8.261h1.16l3.388,8.261Zm7.241,0H325.5V99.433h1.068v7.286H330.6v.975Zm2.552,0h-1.066V99.433H333.2Zm7.751-1.068a2.248,2.248,0,0,1-1.068.881,4.335,4.335,0,0,1-1.578.325,4.288,4.288,0,0,1-1.857-.325,2.675,2.675,0,0,1-1.67-2.459l1.02-.094a2.222,2.222,0,0,0,.325,1.021,2.028,2.028,0,0,0,.835.65,2.763,2.763,0,0,0,1.254.231,2.819,2.819,0,0,0,1.114-.185,1.313,1.313,0,0,0,.928-1.206,1.251,1.251,0,0,0-.231-.7,1.467,1.467,0,0,0-.743-.464,11.7,11.7,0,0,0-1.485-.418,8.913,8.913,0,0,1-1.579-.511,2.089,2.089,0,0,1-.881-.789,2,2,0,0,1-.279-1.021,2.155,2.155,0,0,1,.371-1.16,2.278,2.278,0,0,1,1.021-.835,4.1,4.1,0,0,1,1.531-.279,4.422,4.422,0,0,1,1.624.279,2.013,2.013,0,0,1,1.068.881,3.061,3.061,0,0,1,.418,1.3l-1.066.092a1.553,1.553,0,0,0-.558-1.16,2.128,2.128,0,0,0-1.439-.418,2.327,2.327,0,0,0-1.439.371,1.124,1.124,0,0,0-.464.881.921.921,0,0,0,.325.743,5.116,5.116,0,0,0,1.624.6,18,18,0,0,1,1.81.51,2.886,2.886,0,0,1,1.068.835,1.99,1.99,0,0,1,.325,1.16A2.118,2.118,0,0,1,340.951,106.627Zm5.058,1.068h-1.066v-7.288H342.25v-.974H348.8v.974h-2.738v7.288Zm8.54,0-.974-2.507H350.14l-.881,2.507H348.1l3.156-8.261h1.16l3.388,8.261Zm7.936-1.068a2.236,2.236,0,0,1-1.068.881,3.55,3.55,0,0,1-1.578.325,4.288,4.288,0,0,1-1.857-.325,2.675,2.675,0,0,1-1.67-2.459l1.021-.094a2.222,2.222,0,0,0,.324,1.021,2.033,2.033,0,0,0,.837.65,2.757,2.757,0,0,0,1.253.231,2.819,2.819,0,0,0,1.114-.185,1.313,1.313,0,0,0,.928-1.206,1.251,1.251,0,0,0-.231-.7,1.461,1.461,0,0,0-.743-.464,11.7,11.7,0,0,0-1.485-.418,8.846,8.846,0,0,1-1.578-.511,2.093,2.093,0,0,1-.883-.789,2,2,0,0,1-.277-1.021,2.143,2.143,0,0,1,.371-1.16,2.267,2.267,0,0,1,1.02-.835,4.1,4.1,0,0,1,1.532-.279,4.435,4.435,0,0,1,1.625.279,2.015,2.015,0,0,1,1.066.881,3.081,3.081,0,0,1,.419,1.3l-1.068.092a1.549,1.549,0,0,0-.558-1.16,2.129,2.129,0,0,0-1.439-.418,2.319,2.319,0,0,0-1.438.371,1.006,1.006,0,0,0-.465.881.925.925,0,0,0,.325.743,5.113,5.113,0,0,0,1.625.6,10.51,10.51,0,0,1,1.809.51,2.863,2.863,0,0,1,1.068.835,1.991,1.991,0,0,1,.325,1.16A2.118,2.118,0,0,1,362.486,106.627Z" transform="translate(-80.209 -96.555)" fill="#727277"/>
      <path id="Caminho_7374" data-name="Caminho 7374" d="M215.32,105.856a2.607,2.607,0,0,0,2.043-.883,3.556,3.556,0,0,0,.789-2.459,4.261,4.261,0,0,0-.325-1.764,2.68,2.68,0,0,0-.975-1.16,2.644,2.644,0,0,0-1.484-.418,2.849,2.849,0,0,0-2,.789,3.477,3.477,0,0,0-.835,2.645,3.552,3.552,0,0,0,.789,2.367A2.448,2.448,0,0,0,215.32,105.856Z" transform="translate(-27.12 -95.505)" fill="#727277"/>
      <path id="Caminho_7375" data-name="Caminho 7375" d="M151.558,105.856a2.609,2.609,0,0,0,2.043-.883,3.556,3.556,0,0,0,.789-2.459,4.262,4.262,0,0,0-.325-1.764,2.69,2.69,0,0,0-.975-1.16,2.645,2.645,0,0,0-1.485-.418,2.848,2.848,0,0,0-2,.789,3.477,3.477,0,0,0-.835,2.645,3.552,3.552,0,0,0,.789,2.367A2.448,2.448,0,0,0,151.558,105.856Z" transform="translate(-52.701 -95.505)" fill="#727277"/>
      <path id="Caminho_7376" data-name="Caminho 7376" d="M274.445,99.238a6.8,6.8,0,0,1-.464,1.578l-.929,2.414h2.786l-.883-2.274C274.77,100.259,274.584,99.7,274.445,99.238Z" transform="translate(-2.842 -95.479)" fill="#727277"/>
    </g>
    <ellipse id="Elipse_102" data-name="Elipse 102" cx="11.603" cy="11.603" rx="11.603" ry="11.603" transform="translate(67.715 0)" fill="url(#linear-gradient)"/>
    <ellipse id="Elipse_103" data-name="Elipse 103" cx="11.603" cy="11.603" rx="11.603" ry="11.603" transform="translate(111.946 0)" fill="url(#linear-gradient-2)"/>
    <path id="Caminho_7377" data-name="Caminho 7377" d="M156.724,93.995q.557,1.81.975,3.619,8.355-22,16.848-44.323a4.641,4.641,0,0,1,2.042-2.182H139.831a3.516,3.516,0,0,1,.6,1.068Q148.58,73.063,156.724,93.995Z" transform="translate(-56.289 -22.613)" fill="none"/>
    <path id="Caminho_7378" data-name="Caminho 7378" d="M140.534,62.836l-9.282,43.627h26.826Z" transform="translate(-59.731 -17.909)" fill="none"/>
    <path id="Caminho_7379" data-name="Caminho 7379" d="M125.138,94.091a1.588,1.588,0,0,1-.186-.418l-.092.418Z" transform="translate(-62.296 -5.537)" fill="none"/>
    <path id="Caminho_7380" data-name="Caminho 7380" d="M178.773,51.11H171.44a4.656,4.656,0,0,0-2.042,2.182c-5.616,14.851-11.278,29.658-16.848,44.323v13.552h3.667l16.708-43.395,9,43.395h9.05Z" transform="translate(-51.186 -22.613)" fill="url(#linear-gradient-3)"/>
    <path id="Caminho_7381" data-name="Caminho 7381" d="M162.691,93.995Q154.616,73.04,146.4,52.178a4.872,4.872,0,0,0-.6-1.068h-7.936a3.793,3.793,0,0,0-1.114,2.228c-.837,4.456-1.81,8.864-2.739,13.274q-3.342,15.734-6.682,31.468h0L124.958,110.7a1.14,1.14,0,0,0,.186.418h8.679L143.1,67.494l17.544,43.626h3.017V97.568C163.387,96.408,163.062,95.2,162.691,93.995Z" transform="translate(-62.256 -22.613)" fill="url(#linear-gradient-4)"/>
  </g>
</svg>
