<svg xmlns="http://www.w3.org/2000/svg" width="289.383" height="118.936" viewBox="0 0 289.383 118.936">
  <g id="Layer_2" data-name="Layer 2" transform="translate(0)">
    <g id="Layer_1-2" data-name="Layer 1-2" transform="translate(0 0)">
      <path id="Caminho_8019" data-name="Caminho 8019" d="M216.3,5371.679V5350.3c0-1.083,0-2.214.1-3.3.423-4.756,3.3-7.722,8.051-7.768,10.359-.142,20.717-.048,31.076-.094,1.271,0,1.366.518,1.366,1.554-.048,2.213-.1,4.378,0,6.591.046,1.366-.425,1.7-1.743,1.7q-9.887-.071-19.775,0c-.942,0-1.883,0-2.825.046-3.062.141-3.909.989-3.956,4-.048,3.86.046,7.674-.048,11.535-.046,1.459.518,1.6,1.789,1.6,7.863-.048,15.679.047,23.543-.094,1.836-.048,2.26.517,2.119,2.212a40.885,40.885,0,0,0,0,5.887c.094,1.506-.471,1.787-1.836,1.787-7.863-.045-15.679.048-23.543-.093-1.648,0-2.119.424-2.025,2.072.142,4.143,0,8.286.046,12.477.048,3.014.943,3.955,3.956,3.955,7.534.047,15.067.1,22.6,0,1.789,0,2.306.47,2.166,2.214a37.622,37.622,0,0,0,0,5.648c.14,1.742-.518,2.025-2.12,1.978-9.745-.046-19.446,0-29.192-.046-6.639,0-9.605-2.92-9.7-9.6-.094-7.581,0-15.209,0-22.789Z" transform="translate(-23.728 -5313.67)" fill="#fff"/>
      <path id="Caminho_8020" data-name="Caminho 8020" d="M282.5,5404.086c-4.616-.047-9.276.235-13.844-.612-9.134-1.647-14.879-7.064-16.856-16.1a73.912,73.912,0,0,1-.235-30.322c2.308-11.488,9.324-17.327,21.141-17.8,6.168-.235,12.384-.047,18.6-.142,1.318,0,1.554.423,1.508,1.6q-.143,3.178,0,6.356c.094,1.412-.331,1.883-1.837,1.883q-6.709-.069-13.419.142a23.532,23.532,0,0,0-4.426.612,11.044,11.044,0,0,0-9.134,9.229,65.606,65.606,0,0,0-.235,24.06c1.319,7.582,5.462,10.784,13.655,11.16,4.756.235,9.559.189,14.361.094,1.7-.048,2.166.471,2.072,2.12a40.856,40.856,0,0,0,0,5.885c.142,1.6-.518,1.93-1.977,1.883C288.765,5404.039,285.61,5404.086,282.5,5404.086Z" transform="translate(-10.165 -5313.684)" fill="#fff"/>
      <path id="Caminho_8021" data-name="Caminho 8021" d="M224.116,5384.071c-.329-6.074-2.5-10.594-7.722-12.949a12.193,12.193,0,0,0,4.473-4.942c5.133-11.019-.471-23.968-10.828-24.814-8.853-.707-17.7-.141-26.557-.331-1.506-.046-1.271,1.083-1.271,2.12q.072,29.1-.048,58.244c0,1.7.377,2.025,1.743,2.025,6.356-.094,12.665,0,19.021-.047a57.7,57.7,0,0,0,10.265-.471c6.12-1.13,9.747-5.133,10.736-12.147A35.118,35.118,0,0,0,224.116,5384.071Zm-29.946-32.348c0-1.176.235-1.647,1.225-1.6,4.1.1,8.193,0,12.288.189,4.332.235,6.31,3.156,6.216,8.711-.094,5.415-2.119,8.051-6.4,8.287-1.977.093-3.956,0-5.98,0v.093c-2.071,0-4.1-.046-6.12.048-.989.049-1.271-.376-1.225-1.554C194.218,5361.092,194.218,5356.433,194.17,5351.723Zm19.917,39.787c-1.317,2.449-3.531,2.779-5.65,2.92s-4.331.047-6.5.047v.048c-2.166,0-4.332-.048-6.545.045-.989.048-1.225-.422-1.225-1.6q.072-7.628,0-15.256c0-1.224.283-1.6,1.225-1.554,4.426.095,8.805,0,13.23.095,2.591.094,5.086.894,6.122,4.284A14.1,14.1,0,0,1,214.086,5391.51Z" transform="translate(-37.425 -5312.925)" fill="#fff"/>
      <path id="Caminho_8022" data-name="Caminho 8022" d="M139.512,5402.708q-11.371-30.086-22.7-60.221a1.842,1.842,0,0,0-2.025-1.413c-3.485.048-6.922.142-10.359-.047-1.648-.093-2.306.566-2.825,2.025q-6.356,17.091-12.807,34.183c-3.3,8.664-6.545,17.327-9.934,26.226,4,0,7.722-.046,11.441.047,1.083,0,1.225-.707,1.508-1.459,1.365-3.813,2.777-7.627,4.1-11.441a2.184,2.184,0,0,1,2.5-1.743c7.345.1,14.738.1,22.13,0a2.169,2.169,0,0,1,2.448,1.79c1.271,3.862,2.731,7.628,4.049,11.49.329.893.706,1.364,1.789,1.364,3.625-.094,7.2-.047,10.83-.047C139.606,5403.227,139.558,5402.944,139.512,5402.708Zm-21.66-22.836c-6.027-.047-12.053,0-18.41,0l9.841-27.781c3.249,9.089,6.357,17.752,9.465,26.367C119.171,5379.4,119.125,5379.873,117.852,5379.873Z" transform="translate(-78.867 -5312.918)" fill="#fff"/>
      <text id="_" data-name=" " transform="translate(112.588 98.6)" fill="#fff" font-size="5" font-family="ArialMT, Arial" letter-spacing="-0.04em" style="isolation: isolate"><tspan x="0" y="0"> </tspan></text>
      <g id="Grupo_1125" data-name="Grupo 1125" transform="translate(0 93.51)">
        <path id="Caminho_8023" data-name="Caminho 8023" d="M141.222,5398.822a6.86,6.86,0,0,1-.471,1.6l-.894,2.448h2.825l-.9-2.307C141.551,5399.858,141.363,5399.293,141.222,5398.822Z" transform="translate(-54.398 -5383.237)" fill="#fff"/>
        <path id="Caminho_8024" data-name="Caminho 8024" d="M210.453,5390.677a4.6,4.6,0,0,0-1.412-.188H207.3v6.4h1.789a4.907,4.907,0,0,0,1.319-.141,1.654,1.654,0,0,0,.752-.425,2.514,2.514,0,0,0,.612-1.035,5.219,5.219,0,0,0,.235-1.6,3.939,3.939,0,0,0-.423-2.025A2.267,2.267,0,0,0,210.453,5390.677Z" transform="translate(-27.341 -5386.581)" fill="#fff"/>
        <path id="Caminho_8025" data-name="Caminho 8025" d="M203.355,5390.422a6.871,6.871,0,0,1-.471,1.6l-.9,2.448h2.826l-.9-2.307C203.684,5391.458,203.5,5390.891,203.355,5390.422Z" transform="translate(-29.471 -5386.608)" fill="#fff"/>
        <path id="Caminho_8026" data-name="Caminho 8026" d="M118.305,5390.422a6.871,6.871,0,0,1-.471,1.6l-.9,2.448h2.825l-.894-2.307C118.634,5391.458,118.447,5390.891,118.305,5390.422Z" transform="translate(-63.593 -5386.608)" fill="#fff"/>
        <path id="Caminho_8027" data-name="Caminho 8027" d="M209.964,5399.178a2.7,2.7,0,0,0-1.506-.423,2.884,2.884,0,0,0-2.025.8,3.526,3.526,0,0,0-.848,2.685,3.6,3.6,0,0,0,.8,2.4,2.734,2.734,0,0,0,2.025.848,2.646,2.646,0,0,0,2.072-.894,3.471,3.471,0,0,0,.8-2.5,4.342,4.342,0,0,0-.329-1.79A3.253,3.253,0,0,0,209.964,5399.178Z" transform="translate(-28.029 -5383.264)" fill="#fff"/>
        <path id="Caminho_8028" data-name="Caminho 8028" d="M126.209,5398.985a4.388,4.388,0,0,0-1.035-.1h-2.119v2.966h2.166a2.424,2.424,0,0,0,1.506-.375,1.559,1.559,0,0,0,.471-1.13,1.452,1.452,0,0,0-.282-.895A1.116,1.116,0,0,0,126.209,5398.985Z" transform="translate(-61.139 -5383.21)" fill="#fff"/>
        <path id="Caminho_8029" data-name="Caminho 8029" d="M129.629,5398.822a6.86,6.86,0,0,1-.471,1.6l-.894,2.448h2.825l-.9-2.307C129.958,5399.858,129.77,5399.293,129.629,5398.822Z" transform="translate(-59.049 -5383.237)" fill="#fff"/>
        <path id="Caminho_8030" data-name="Caminho 8030" d="M129.864,5390.422a6.871,6.871,0,0,1-.471,1.6l-.894,2.448h2.825l-.894-2.307C130.194,5391.458,130.005,5390.891,129.864,5390.422Z" transform="translate(-58.955 -5386.608)" fill="#fff"/>
        <path id="Caminho_8031" data-name="Caminho 8031" d="M137.764,5400.975a1.432,1.432,0,0,0,.235-.753,1.353,1.353,0,0,0-.425-.989,2.144,2.144,0,0,0-1.365-.377h-2.637v2.777h2.354a3.8,3.8,0,0,0,1.177-.14A1.263,1.263,0,0,0,137.764,5400.975Z" transform="translate(-56.919 -5383.224)" fill="#fff"/>
        <path id="Caminho_8032" data-name="Caminho 8032" d="M179.124,5393.745a4.33,4.33,0,0,0-.331-1.789,2.636,2.636,0,0,0-2.5-1.6,2.893,2.893,0,0,0-2.025.8,3.53,3.53,0,0,0-.846,2.685,3.6,3.6,0,0,0,.8,2.4,2.737,2.737,0,0,0,2.025.846,2.64,2.64,0,0,0,2.071-.895A3.4,3.4,0,0,0,179.124,5393.745Z" transform="translate(-40.93 -5386.635)" fill="#fff"/>
        <path id="Caminho_8033" data-name="Caminho 8033" d="M164.14,5390.422a6.871,6.871,0,0,1-.471,1.6l-.9,2.448H165.6l-.894-2.307C164.469,5391.458,164.282,5390.891,164.14,5390.422Z" transform="translate(-45.204 -5386.608)" fill="#fff"/>
        <path id="Caminho_8034" data-name="Caminho 8034" d="M171.757,5393.078a1.565,1.565,0,0,0,.471-1.131,1.448,1.448,0,0,0-.283-.893,1.18,1.18,0,0,0-.706-.471,4.441,4.441,0,0,0-1.035-.094h-2.119v2.967h2.165A2.009,2.009,0,0,0,171.757,5393.078Z" transform="translate(-43.074 -5386.581)" fill="#fff"/>
        <path id="Caminho_8035" data-name="Caminho 8035" d="M145.767,5390.677a4.608,4.608,0,0,0-1.412-.188h-1.743v6.4H144.4a4.9,4.9,0,0,0,1.318-.141,1.666,1.666,0,0,0,.754-.425,2.53,2.53,0,0,0,.612-1.035,5.262,5.262,0,0,0,.235-1.6,3.923,3.923,0,0,0-.425-2.025A2.431,2.431,0,0,0,145.767,5390.677Z" transform="translate(-53.293 -5386.581)" fill="#fff"/>
        <path id="Caminho_8036" data-name="Caminho 8036" d="M189.567,5399.178a2.7,2.7,0,0,0-1.508-.423,2.883,2.883,0,0,0-2.023.8,3.52,3.52,0,0,0-.848,2.685,3.6,3.6,0,0,0,.8,2.4,2.734,2.734,0,0,0,2.025.848,2.642,2.642,0,0,0,2.071-.894,3.465,3.465,0,0,0,.8-2.5,4.342,4.342,0,0,0-.331-1.79A2.508,2.508,0,0,0,189.567,5399.178Z" transform="translate(-36.212 -5383.264)" fill="#fff"/>
        <path id="Caminho_8037" data-name="Caminho 8037" d="M149.793,5401.325a1.588,1.588,0,0,0,.659-.425.92.92,0,0,0,.235-.706,1.377,1.377,0,0,0-.188-.753,1.011,1.011,0,0,0-.565-.424,4.248,4.248,0,0,0-1.272-.095h-1.648v2.543H148.8C149.228,5401.419,149.6,5401.371,149.793,5401.325Z" transform="translate(-51.527 -5383.196)" fill="#fff"/>
        <path id="Caminho_8038" data-name="Caminho 8038" d="M150.1,5401.55a4.128,4.128,0,0,0-1.223-.14h-1.931v2.871h2.072a2.969,2.969,0,0,0,.752-.046,2.71,2.71,0,0,0,.66-.235,1.03,1.03,0,0,0,.423-.471,1.567,1.567,0,0,0,.189-.706,1.236,1.236,0,0,0-.943-1.272Z" transform="translate(-51.554 -5382.198)" fill="#fff"/>
        <path id="Caminho_8039" data-name="Caminho 8039" d="M137.952,5390.78a2.678,2.678,0,0,0-1.506-.425,2.888,2.888,0,0,0-2.025.8,3.53,3.53,0,0,0-.848,2.685,3.611,3.611,0,0,0,.8,2.4,2.739,2.739,0,0,0,2.025.846,2.645,2.645,0,0,0,2.072-.895,3.607,3.607,0,0,0,.8-2.5,4.337,4.337,0,0,0-.329-1.79A3.24,3.24,0,0,0,137.952,5390.78Z" transform="translate(-56.919 -5386.635)" fill="#fff"/>
        <path id="Caminho_8040" data-name="Caminho 8040" d="M105.995,5390.78a2.678,2.678,0,0,0-1.506-.425,2.89,2.89,0,0,0-2.025.8,3.53,3.53,0,0,0-.848,2.685,3.611,3.611,0,0,0,.8,2.4,2.742,2.742,0,0,0,2.025.846,2.643,2.643,0,0,0,2.072-.895,3.607,3.607,0,0,0,.8-2.5,4.338,4.338,0,0,0-.329-1.79A3.226,3.226,0,0,0,105.995,5390.78Z" transform="translate(-69.74 -5386.635)" fill="#fff"/>
        <path id="Caminho_8041" data-name="Caminho 8041" d="M86.818,5390.422a6.872,6.872,0,0,1-.471,1.6l-.894,2.448h2.825l-.894-2.307C87.148,5391.458,86.913,5390.891,86.818,5390.422Z" transform="translate(-76.225 -5386.608)" fill="#fff"/>
        <path id="Caminho_8042" data-name="Caminho 8042" d="M253.357,5390.422a6.939,6.939,0,0,1-.471,1.6l-.9,2.448h2.825l-.894-2.307C253.686,5391.458,253.5,5390.891,253.357,5390.422Z" transform="translate(-9.411 -5386.608)" fill="#fff"/>
        <path id="Caminho_8043" data-name="Caminho 8043" d="M239.6,5399.178a2.7,2.7,0,0,0-1.506-.423,2.886,2.886,0,0,0-2.025.8,3.526,3.526,0,0,0-.848,2.685,3.6,3.6,0,0,0,.8,2.4,2.736,2.736,0,0,0,2.025.848,2.644,2.644,0,0,0,2.072-.894,3.606,3.606,0,0,0,.8-2.5,4.342,4.342,0,0,0-.329-1.79A3.239,3.239,0,0,0,239.6,5399.178Z" transform="translate(-16.138 -5383.264)" fill="#fff"/>
        <path id="Caminho_8044" data-name="Caminho 8044" d="M78.867,5387.7v25.426H368.25V5387.7Zm224.924,2.92h6.639v.989h-2.779V5399h-1.082v-7.391h-2.731v-.989Zm-23.589,5.414a1.5,1.5,0,0,0-.754-.471,12.337,12.337,0,0,0-1.506-.424,9.1,9.1,0,0,1-1.6-.517,2.117,2.117,0,0,1-.894-.8,2.011,2.011,0,0,1-.283-1.035,2.17,2.17,0,0,1,.377-1.178,2.3,2.3,0,0,1,1.036-.848,4.136,4.136,0,0,1,1.554-.282,4.463,4.463,0,0,1,1.648.282,2.049,2.049,0,0,1,1.083.895,3.12,3.12,0,0,1,.425,1.319l-1.083.093a1.57,1.57,0,0,0-.566-1.176,2.163,2.163,0,0,0-1.459-.423,2.362,2.362,0,0,0-1.46.376,1.019,1.019,0,0,0-.471.894.935.935,0,0,0,.329.753,5.2,5.2,0,0,0,1.648.612,10.449,10.449,0,0,1,1.837.518,2.884,2.884,0,0,1,1.083.848,2.02,2.02,0,0,1,.329,1.177,2.625,2.625,0,0,1-.377,1.27,2.293,2.293,0,0,1-1.083.9,3.625,3.625,0,0,1-1.6.329,4.373,4.373,0,0,1-1.883-.329,2.719,2.719,0,0,1-1.7-2.5l1.035-.093a2.263,2.263,0,0,0,.329,1.036,2.036,2.036,0,0,0,.848.658,2.776,2.776,0,0,0,1.272.235,2.858,2.858,0,0,0,1.129-.187,1.34,1.34,0,0,0,.942-1.226A.905.905,0,0,0,280.2,5396.033Zm-13.279-4.378a3.734,3.734,0,0,1,2.872-1.176,3.919,3.919,0,0,1,2.072.564,3.761,3.761,0,0,1,1.412,1.554,5.412,5.412,0,0,1-.048,4.521,3.467,3.467,0,0,1-1.459,1.506,4.3,4.3,0,0,1-2.025.519,3.955,3.955,0,0,1-2.119-.564,3.778,3.778,0,0,1-1.414-1.554,4.6,4.6,0,0,1-.471-2.073A4.833,4.833,0,0,1,266.923,5391.655Zm-39.5-1.036h6.027v.989H228.5v2.542h4.614v.988H228.5v2.826h5.133v.989h-6.216v-8.334Zm-51.181,1.036a3.734,3.734,0,0,1,2.872-1.176,3.919,3.919,0,0,1,2.072.564,3.761,3.761,0,0,1,1.412,1.554,5.412,5.412,0,0,1-.048,4.521,3.467,3.467,0,0,1-1.459,1.506,4.3,4.3,0,0,1-2.025.519,3.964,3.964,0,0,1-2.12-.564,3.785,3.785,0,0,1-1.412-1.554,4.6,4.6,0,0,1-.471-2.073A5.34,5.34,0,0,1,176.237,5391.655Zm-27.874-2.5a1.1,1.1,0,0,1,.848-.377,1.878,1.878,0,0,1,.942.331,2.487,2.487,0,0,0,.518.187.392.392,0,0,0,.282-.095,1,1,0,0,0,.142-.376h.754a1.556,1.556,0,0,1-.329.989.972.972,0,0,1-.8.33,1.88,1.88,0,0,1-.942-.33,1.126,1.126,0,0,0-.565-.188.427.427,0,0,0-.329.141.577.577,0,0,0-.142.423h-.754A1.6,1.6,0,0,1,148.363,5389.16ZM92.239,5399l-.989-2.541H87.766l-.9,2.541H85.694l3.2-8.38h1.177l3.437,8.38Zm8.051-1.083a2.293,2.293,0,0,1-1.083.9,3.625,3.625,0,0,1-1.6.329,4.372,4.372,0,0,1-1.883-.329,3.158,3.158,0,0,1-1.225-.99,2.726,2.726,0,0,1-.471-1.507l1.035-.093a2.263,2.263,0,0,0,.329,1.036,2.036,2.036,0,0,0,.848.658,2.779,2.779,0,0,0,1.272.235,2.858,2.858,0,0,0,1.129-.187,1.34,1.34,0,0,0,.942-1.226,1.272,1.272,0,0,0-.235-.706,1.5,1.5,0,0,0-.754-.471,12.338,12.338,0,0,0-1.506-.424,9.032,9.032,0,0,1-1.6-.517,2.129,2.129,0,0,1-.9-.8,2.023,2.023,0,0,1-.282-1.035,2.168,2.168,0,0,1,.376-1.178,2.3,2.3,0,0,1,1.037-.848,4.131,4.131,0,0,1,1.554-.282,4.468,4.468,0,0,1,1.648.282,2.049,2.049,0,0,1,1.083.895,3.119,3.119,0,0,1,.423,1.319l-1.083.093a1.574,1.574,0,0,0-.565-1.176,2.164,2.164,0,0,0-1.46-.423,2.365,2.365,0,0,0-1.46.376,1.138,1.138,0,0,0-.471.894.937.937,0,0,0,.331.753,5.186,5.186,0,0,0,1.648.612,10.461,10.461,0,0,1,1.836.518,2.884,2.884,0,0,1,1.083.848,2.02,2.02,0,0,1,.329,1.177A2.139,2.139,0,0,1,100.29,5397.916Zm7.77,0a2.293,2.293,0,0,1-1.083.9,3.627,3.627,0,0,1-1.6.329,4.377,4.377,0,0,1-1.883-.329,3.163,3.163,0,0,1-1.223-.99,2.716,2.716,0,0,1-.472-1.507l1.037-.093a2.247,2.247,0,0,0,.329,1.036,2.027,2.027,0,0,0,.848.658,2.773,2.773,0,0,0,1.271.235,2.865,2.865,0,0,0,1.131-.187,1.4,1.4,0,0,0,.706-.52,1.41,1.41,0,0,0,.235-.706,1.283,1.283,0,0,0-.235-.706,1.5,1.5,0,0,0-.754-.471,12.338,12.338,0,0,0-1.506-.424,9.1,9.1,0,0,1-1.6-.517,2.116,2.116,0,0,1-.894-.8,2.011,2.011,0,0,1-.283-1.035,2.17,2.17,0,0,1,.377-1.178,2.3,2.3,0,0,1,1.035-.848,4.137,4.137,0,0,1,1.554-.282,4.463,4.463,0,0,1,1.648.282,2.049,2.049,0,0,1,1.083.895,3.12,3.12,0,0,1,.425,1.319l-1.083.093a1.57,1.57,0,0,0-.566-1.176,2.163,2.163,0,0,0-1.459-.423,2.362,2.362,0,0,0-1.46.376,1.134,1.134,0,0,0-.471.894.935.935,0,0,0,.329.753,5.2,5.2,0,0,0,1.648.612,10.449,10.449,0,0,1,1.837.518,2.884,2.884,0,0,1,1.083.848,2.02,2.02,0,0,1,.329,1.177A2.139,2.139,0,0,1,108.059,5397.916Zm9.04-.8a3.47,3.47,0,0,1-1.46,1.506,4.3,4.3,0,0,1-2.025.519,3.962,3.962,0,0,1-2.119-.564,3.766,3.766,0,0,1-1.412-1.554,4.582,4.582,0,0,1-.471-2.073,4.465,4.465,0,0,1,1.129-3.248,3.731,3.731,0,0,1,2.872-1.178,3.907,3.907,0,0,1,2.071.565,3.758,3.758,0,0,1,1.414,1.553,4.986,4.986,0,0,1,.471,2.261A4.479,4.479,0,0,1,117.1,5397.117Zm7.768,1.318a3.462,3.462,0,0,1-2.212.707,3.963,3.963,0,0,1-2.214-.564,3.357,3.357,0,0,1-1.271-1.6,6.009,6.009,0,0,1-.423-2.26,4.864,4.864,0,0,1,.517-2.261,3.277,3.277,0,0,1,1.412-1.458,4.166,4.166,0,0,1,2.025-.518,3.451,3.451,0,0,1,2.12.659,3.182,3.182,0,0,1,1.177,1.789l-1.083.236a2.481,2.481,0,0,0-.848-1.318,2.288,2.288,0,0,0-1.412-.424,2.494,2.494,0,0,0-1.6.471,2.321,2.321,0,0,0-.894,1.224,4.574,4.574,0,0,0-.283,1.6,4.8,4.8,0,0,0,.329,1.883,2.061,2.061,0,0,0,.989,1.179,2.71,2.71,0,0,0,2.966-.143,3.118,3.118,0,0,0,.9-1.6l1.082.283A4.254,4.254,0,0,1,124.868,5398.435Zm3.908.565h-1.083v-8.38h1.083Zm7.58,0-.988-2.541h-3.485L130.99,5399h-1.178l3.2-8.38h1.177l3.437,8.38Zm2.26-2.025a6.036,6.036,0,0,1-.423-2.26,4.847,4.847,0,0,1,.518-2.261,3.263,3.263,0,0,1,1.412-1.458,4.158,4.158,0,0,1,2.025-.518,3.45,3.45,0,0,1,2.119.659,3.182,3.182,0,0,1,1.177,1.789l-1.083.236a2.473,2.473,0,0,0-.848-1.318,2.288,2.288,0,0,0-1.412-.424,2.5,2.5,0,0,0-1.6.471,2.322,2.322,0,0,0-.894,1.224,4.606,4.606,0,0,0-.283,1.6,4.8,4.8,0,0,0,.331,1.883,2.053,2.053,0,0,0,.988,1.179,2.71,2.71,0,0,0,2.966-.143,3.118,3.118,0,0,0,.9-1.6l1.083.283a3.722,3.722,0,0,1-1.272,2.071,3.459,3.459,0,0,1-2.212.708l-.094.33a1.574,1.574,0,0,1,.752.282.756.756,0,0,1,.235.518.967.967,0,0,1-.423.754,1.887,1.887,0,0,1-1.225.33,3.993,3.993,0,0,1-.8-.048l.048-.657h.517a1.4,1.4,0,0,0,.754-.143c.094-.093.188-.187.188-.282a.287.287,0,0,0-.046-.188,1.047,1.047,0,0,0-.235-.142,1.82,1.82,0,0,0-.565-.046l.235-.8a3.6,3.6,0,0,1-1.46-.517A2.424,2.424,0,0,1,138.617,5396.975Zm4.332,10.407h-2.166v3.389H139.7v-8.381h3.155a7.69,7.69,0,0,1,1.271.095,2.246,2.246,0,0,1,1.035.376,1.838,1.838,0,0,1,.66.8,2.227,2.227,0,0,1,.235,1.131,2.611,2.611,0,0,1-.66,1.788A3,3,0,0,1,142.949,5407.382Zm9.322,3.389-.988-2.541H147.8l-.894,2.541h-1.178l3.2-8.381h1.178l3.437,8.381Zm.283-11.771-.989-2.541h-3.483l-.9,2.541h-1.177l3.2-8.38h1.177l3.437,8.38Zm7.816,11.771-1.083-1.742a12.993,12.993,0,0,0-.8-1.13,1.612,1.612,0,0,0-.565-.565,2.686,2.686,0,0,0-.518-.235,2.092,2.092,0,0,0-.612-.048h-1.271v3.721h-1.083v-8.381h3.72a5,5,0,0,1,1.694.236,1.927,1.927,0,0,1,.942.8,2.321,2.321,0,0,1,.331,1.271,2.139,2.139,0,0,1-.566,1.507,2.739,2.739,0,0,1-1.788.753,2.662,2.662,0,0,1,.659.425,4.475,4.475,0,0,1,.894,1.129l1.46,2.26Zm.048-12.148a4.3,4.3,0,0,1-2.025.519,3.956,3.956,0,0,1-2.119-.564,3.778,3.778,0,0,1-1.414-1.554,4.6,4.6,0,0,1-.471-2.073,4.466,4.466,0,0,1,1.131-3.248,3.731,3.731,0,0,1,2.872-1.178,3.914,3.914,0,0,1,2.071.565,3.745,3.745,0,0,1,1.412,1.553,5.418,5.418,0,0,1-.046,4.52A3.258,3.258,0,0,1,160.418,5398.623Zm8.051,12.148-.989-2.541H164l-.9,2.541h-1.177l3.2-8.381H166.3l3.437,8.381Zm3.956-12.336a3.155,3.155,0,0,1-.989.424,5.747,5.747,0,0,1-1.366.141h-3.013v-8.38h2.872a6.286,6.286,0,0,1,1.506.141,2.754,2.754,0,0,1,1.225.612,3.809,3.809,0,0,1,.988,1.414,5.114,5.114,0,0,1,.329,1.977,6.413,6.413,0,0,1-.235,1.7,3.7,3.7,0,0,1-.565,1.223A3.747,3.747,0,0,1,172.425,5398.435Zm6.827,11.019a2.758,2.758,0,0,1-.612.8,2.614,2.614,0,0,1-.894.424,5.553,5.553,0,0,1-1.366.142h-3.2v-8.382h3.155a4.7,4.7,0,0,1,1.554.235,1.861,1.861,0,0,1,.894.8,1.83,1.83,0,0,1,.329,1.082,1.747,1.747,0,0,1-.282.99,1.81,1.81,0,0,1-.9.754,2.324,2.324,0,0,1,1.177.751,1.977,1.977,0,0,1,.425,1.272A3.989,3.989,0,0,1,179.251,5409.453Zm8.005,1.318h-6.216v-8.381h6.027v.988h-4.943v2.543h4.614v.989h-4.614v2.825h5.133Zm-1.414-11.958a3.163,3.163,0,0,1-1.223-.99,2.715,2.715,0,0,1-.471-1.507l1.035-.093a2.263,2.263,0,0,0,.329,1.036,2.036,2.036,0,0,0,.848.658,2.773,2.773,0,0,0,1.271.235,2.861,2.861,0,0,0,1.131-.187,1.34,1.34,0,0,0,.942-1.226,1.272,1.272,0,0,0-.235-.706,1.5,1.5,0,0,0-.754-.471,12.336,12.336,0,0,0-1.506-.424,9.1,9.1,0,0,1-1.6-.517,2.125,2.125,0,0,1-.894-.8,2.024,2.024,0,0,1-.283-1.035,2.17,2.17,0,0,1,.377-1.178,2.3,2.3,0,0,1,1.036-.848,4.142,4.142,0,0,1,1.554-.282,4.475,4.475,0,0,1,1.649.282,2.046,2.046,0,0,1,1.082.895,3.12,3.12,0,0,1,.425,1.319l-1.083.093a1.574,1.574,0,0,0-.565-1.176,2.169,2.169,0,0,0-1.46-.423,2.365,2.365,0,0,0-1.46.376,1.138,1.138,0,0,0-.471.894.935.935,0,0,0,.329.753,5.2,5.2,0,0,0,1.649.612,10.462,10.462,0,0,1,1.836.518,2.884,2.884,0,0,1,1.083.848,2.02,2.02,0,0,1,.329,1.177,2.625,2.625,0,0,1-.377,1.27,2.289,2.289,0,0,1-1.082.9,3.636,3.636,0,0,1-1.6.329A4.436,4.436,0,0,1,185.843,5398.813Zm9.511,11.958h-1.129l-4.379-6.591v6.591h-1.083v-8.381h1.129l4.379,6.545v-6.545h1.083Zm-.14-11.771h-1.178l3.2-8.38h1.177l3.437,8.38H200.58l-.988-2.541h-3.485Zm8.287,11.771h-6.216v-8.381h6.027v.988h-4.943v2.543h4.614v.989h-4.614v2.825H203.5ZM203.83,5399h-1.083v-8.38H205.9a7.744,7.744,0,0,1,1.271.095,2.258,2.258,0,0,1,1.035.376,1.838,1.838,0,0,1,.66.8,2.222,2.222,0,0,1,.235,1.131,2.614,2.614,0,0,1-.66,1.789,3.37,3.37,0,0,1-2.448.752H203.83V5399Zm6.874,4.379h-4.52v2.59h3.908v.988h-3.908v3.814h-1.129v-8.381h5.65Zm2.731,7.393h-1.083v-8.381h1.083Zm-.518-8.852h-.846l.752-1.6h1.366Zm-.846-3.342a3.778,3.778,0,0,1-1.414-1.554,4.6,4.6,0,0,1-.471-2.073,4.466,4.466,0,0,1,1.131-3.248,3.731,3.731,0,0,1,2.872-1.178,3.914,3.914,0,0,1,2.071.565,3.745,3.745,0,0,1,1.412,1.553,5.418,5.418,0,0,1-.046,4.52,3.466,3.466,0,0,1-1.46,1.506,4.315,4.315,0,0,1-2.025.519A4.431,4.431,0,0,1,212.07,5398.577Zm9.134,11.629a3.463,3.463,0,0,1-2.214.707,3.958,3.958,0,0,1-2.212-.565,3.343,3.343,0,0,1-1.271-1.6,6.022,6.022,0,0,1-.425-2.261,4.856,4.856,0,0,1,.518-2.26,3.26,3.26,0,0,1,1.412-1.459,4.168,4.168,0,0,1,2.025-.518,3.447,3.447,0,0,1,2.119.658,3.18,3.18,0,0,1,1.177,1.789l-1.083.236a2.476,2.476,0,0,0-.848-1.319,2.291,2.291,0,0,0-1.412-.423,2.49,2.49,0,0,0-1.6.471,2.323,2.323,0,0,0-.9,1.225,4.594,4.594,0,0,0-.282,1.6,4.8,4.8,0,0,0,.329,1.884,2.052,2.052,0,0,0,.989,1.177,2.441,2.441,0,0,0,1.412.377,2.471,2.471,0,0,0,1.554-.518,3.113,3.113,0,0,0,.894-1.6l1.083.283A3.7,3.7,0,0,1,221.2,5410.207Zm3.908.564h-1.083v-8.381h1.083Zm.377-12.855a2.293,2.293,0,0,1-1.083.9,4.445,4.445,0,0,1-1.6.329,4.372,4.372,0,0,1-1.883-.329,3.168,3.168,0,0,1-1.225-.99,2.727,2.727,0,0,1-.471-1.507l1.037-.093a2.23,2.23,0,0,0,.329,1.036,2.027,2.027,0,0,0,.848.658,2.769,2.769,0,0,0,1.271.235,2.858,2.858,0,0,0,1.129-.187,1.34,1.34,0,0,0,.942-1.226,1.272,1.272,0,0,0-.235-.706,1.492,1.492,0,0,0-.752-.471,12.306,12.306,0,0,0-1.508-.424,9.114,9.114,0,0,1-1.6-.517,2.116,2.116,0,0,1-.894-.8,2.011,2.011,0,0,1-.283-1.035,2.17,2.17,0,0,1,.377-1.178,2.3,2.3,0,0,1,1.035-.848,4.137,4.137,0,0,1,1.554-.282,4.463,4.463,0,0,1,1.648.282,2.049,2.049,0,0,1,1.083.895,3.1,3.1,0,0,1,.423,1.319l-1.083.093a1.57,1.57,0,0,0-.565-1.176,2.163,2.163,0,0,0-1.459-.423,2.359,2.359,0,0,0-1.46.376,1.134,1.134,0,0,0-.471.894.935.935,0,0,0,.329.753,5.2,5.2,0,0,0,1.648.612,10.487,10.487,0,0,1,1.837.518,2.9,2.9,0,0,1,1.083.848,2.02,2.02,0,0,1,.329,1.177A1.641,1.641,0,0,1,225.489,5397.916Zm8.71,10.972a3.465,3.465,0,0,1-1.46,1.506,4.29,4.29,0,0,1-2.025.52,3.963,3.963,0,0,1-2.119-.565,3.766,3.766,0,0,1-1.412-1.554,4.6,4.6,0,0,1-.471-2.072,4.468,4.468,0,0,1,1.131-3.248,4.091,4.091,0,0,1,4.943-.612,3.757,3.757,0,0,1,1.412,1.553,4.988,4.988,0,0,1,.471,2.261A4,4,0,0,1,234.2,5408.888Zm.989-18.269h1.129l4.379,6.544v-6.544h1.083V5399H240.65l-4.379-6.591V5399h-1.083Zm6.874,19.069a2.29,2.29,0,0,1-1.083.9,4.427,4.427,0,0,1-1.6.33,4.364,4.364,0,0,1-1.885-.33,2.718,2.718,0,0,1-1.694-2.5l1.035-.093a2.259,2.259,0,0,0,.329,1.035,2.066,2.066,0,0,0,.848.659,2.792,2.792,0,0,0,1.271.235,2.861,2.861,0,0,0,1.131-.187,1.336,1.336,0,0,0,.942-1.225,1.271,1.271,0,0,0-.235-.707,1.5,1.5,0,0,0-.754-.471,12.156,12.156,0,0,0-1.506-.422,9.112,9.112,0,0,1-1.6-.519,2.129,2.129,0,0,1-.894-.8,2.032,2.032,0,0,1-.283-1.038,2.182,2.182,0,0,1,.377-1.177,2.315,2.315,0,0,1,1.036-.847,4.136,4.136,0,0,1,1.554-.282,4.463,4.463,0,0,1,1.648.282,2.053,2.053,0,0,1,1.083.895,3.12,3.12,0,0,1,.425,1.319l-1.083.094a1.573,1.573,0,0,0-.565-1.178,2.164,2.164,0,0,0-1.46-.423,2.363,2.363,0,0,0-1.46.375,1.141,1.141,0,0,0-.471.9.935.935,0,0,0,.329.753,5.2,5.2,0,0,0,1.648.612,17.9,17.9,0,0,1,1.837.519,2.908,2.908,0,0,1,1.083.848,2.022,2.022,0,0,1,.329,1.177A2.147,2.147,0,0,1,242.063,5409.688Zm4.8-10.689h-1.082v-7.391h-2.731v-.989h6.639v.989h-2.779V5399Zm6.122,11.207a3.462,3.462,0,0,1-2.213.707,3.96,3.96,0,0,1-2.214-.565,3.344,3.344,0,0,1-1.271-1.6,6.022,6.022,0,0,1-.425-2.261,4.856,4.856,0,0,1,.518-2.26,3.26,3.26,0,0,1,1.412-1.459,4.168,4.168,0,0,1,2.025-.518,3.447,3.447,0,0,1,2.119.658,3.172,3.172,0,0,1,1.177,1.789l-1.083.236a2.482,2.482,0,0,0-.846-1.319,2.294,2.294,0,0,0-1.412-.423,2.492,2.492,0,0,0-1.6.471,2.321,2.321,0,0,0-.894,1.225,4.563,4.563,0,0,0-.283,1.6,4.8,4.8,0,0,0,.329,1.884,2.057,2.057,0,0,0,.989,1.177,2.441,2.441,0,0,0,1.412.377,2.468,2.468,0,0,0,1.554-.518,3.113,3.113,0,0,0,.894-1.6l1.083.283A3.691,3.691,0,0,1,252.986,5410.207Zm-1.931-13.748-.894,2.541h-1.177l3.2-8.38h1.177L256.8,5399h-1.272l-.988-2.541Zm11.724,12.429a3.462,3.462,0,0,1-1.459,1.506,4.3,4.3,0,0,1-2.025.52,3.956,3.956,0,0,1-2.119-.565,3.77,3.77,0,0,1-1.414-1.554,4.6,4.6,0,0,1-.471-2.072,4.468,4.468,0,0,1,1.131-3.248,4.091,4.091,0,0,1,4.943-.612,3.757,3.757,0,0,1,1.412,1.553,4.971,4.971,0,0,1,.471,2.261A4.447,4.447,0,0,1,262.779,5408.888Zm1.6-12.429a4.219,4.219,0,0,1-.565,1.223,2.831,2.831,0,0,1-.754.753,3.154,3.154,0,0,1-.989.424,5.734,5.734,0,0,1-1.365.141h-3.014v-8.38h2.872a6.278,6.278,0,0,1,1.506.141,2.747,2.747,0,0,1,1.225.612,3.812,3.812,0,0,1,.989,1.414,5.114,5.114,0,0,1,.329,1.977A5.892,5.892,0,0,1,264.381,5396.458Zm5.509,14.313h-5.226v-8.381h1.082v7.392h4.1v.989Zm7.581,0h-6.216v-8.381h6.027v.988h-4.943v2.543h4.614v.989h-4.614v2.825h5.133v1.035Zm7.533-7.393h-2.777v7.393h-1.083v-7.393h-2.731v-.988h6.639v.988Zm1.177-12.759h1.648l1.978,5.932a10.371,10.371,0,0,1,.377,1.226c.094-.284.235-.754.423-1.319l2.025-5.839h1.506V5399H293.1v-7.017L290.655,5399h-.989l-2.4-7.109V5399h-1.083Zm1.225,20.152h-1.083v-8.381h1.083Zm5.462,0h-1.131l-3.248-8.381h1.177l2.166,6.075a8.974,8.974,0,0,1,.423,1.365c.141-.471.283-.895.471-1.365l2.26-6.075h1.131Zm3.437-13.184a5.248,5.248,0,0,1-.329-2.118v-4.85h1.083v4.8a4.609,4.609,0,0,0,.188,1.6,1.669,1.669,0,0,0,.706.8,2.471,2.471,0,0,0,1.225.283,2.284,2.284,0,0,0,1.742-.564,3.3,3.3,0,0,0,.518-2.12v-4.8h1.083v4.85a5.993,5.993,0,0,1-.283,2.024,2.562,2.562,0,0,1-1.035,1.224,3.462,3.462,0,0,1-1.931.471,3.909,3.909,0,0,1-1.931-.425A2.489,2.489,0,0,1,296.3,5397.587Zm8,11.3a3.472,3.472,0,0,1-1.46,1.506,4.3,4.3,0,0,1-2.025.52,3.963,3.963,0,0,1-2.119-.565,3.757,3.757,0,0,1-1.412-1.554,4.584,4.584,0,0,1-.471-2.072,4.467,4.467,0,0,1,1.129-3.248,3.728,3.728,0,0,1,2.872-1.176,3.906,3.906,0,0,1,2.071.564,3.769,3.769,0,0,1,1.414,1.553,4.988,4.988,0,0,1,.471,2.261A4.478,4.478,0,0,1,304.309,5408.888Zm7.816.8a2.29,2.29,0,0,1-1.083.9,3.614,3.614,0,0,1-1.6.33,4.361,4.361,0,0,1-1.883-.33,2.723,2.723,0,0,1-1.7-2.5l1.037-.093a2.243,2.243,0,0,0,.329,1.035,2.057,2.057,0,0,0,.848.659,2.792,2.792,0,0,0,1.271.235,2.865,2.865,0,0,0,1.131-.187,1.393,1.393,0,0,0,.706-.518,1.413,1.413,0,0,0,.235-.707,1.281,1.281,0,0,0-.235-.707,1.5,1.5,0,0,0-.754-.471,12.153,12.153,0,0,0-1.506-.422,9.11,9.11,0,0,1-1.6-.519,2.121,2.121,0,0,1-.894-.8,2.019,2.019,0,0,1-.283-1.038,2.182,2.182,0,0,1,.377-1.177,2.316,2.316,0,0,1,1.035-.847,4.137,4.137,0,0,1,1.554-.282,4.463,4.463,0,0,1,1.648.282,2.053,2.053,0,0,1,1.083.895,3.12,3.12,0,0,1,.425,1.319l-1.083.094a1.569,1.569,0,0,0-.566-1.178,2.158,2.158,0,0,0-1.459-.423,2.362,2.362,0,0,0-1.46.375,1.021,1.021,0,0,0-.471.9.935.935,0,0,0,.329.753,5.2,5.2,0,0,0,1.648.612,10.661,10.661,0,0,1,1.837.519,2.908,2.908,0,0,1,1.083.848,2.022,2.022,0,0,1,.329,1.177A2.146,2.146,0,0,1,312.125,5409.688Zm5.979-14.219a6,6,0,0,1-.282,2.024,2.566,2.566,0,0,1-1.037,1.224,3.454,3.454,0,0,1-1.929.471,3.905,3.905,0,0,1-1.931-.425,2.383,2.383,0,0,1-1.083-1.177,5.248,5.248,0,0,1-.329-2.118v-4.85H312.6v4.8a4.607,4.607,0,0,0,.188,1.6,1.669,1.669,0,0,0,.706.8,2.471,2.471,0,0,0,1.225.283,2.284,2.284,0,0,0,1.742-.564,3.3,3.3,0,0,0,.518-2.12v-4.8h1.083v4.85Zm7.487,3.53-.988-2.541h-3.485l-.9,2.541h-1.177l3.2-8.38h1.178l3.437,8.38Zm7.345,0h-5.226v-8.38h1.083v7.393h4.1V5399Zm2.591,0h-1.083v-8.38h1.083Zm7.862-1.083a2.286,2.286,0,0,1-1.083.9,4.438,4.438,0,0,1-1.6.329,4.372,4.372,0,0,1-1.883-.329,2.719,2.719,0,0,1-1.7-2.5l1.035-.093a2.247,2.247,0,0,0,.331,1.036,2.031,2.031,0,0,0,.846.658,2.779,2.779,0,0,0,1.272.235,2.858,2.858,0,0,0,1.129-.187,1.34,1.34,0,0,0,.942-1.226,1.271,1.271,0,0,0-.235-.706,1.491,1.491,0,0,0-.752-.471,12.309,12.309,0,0,0-1.508-.424,9.073,9.073,0,0,1-1.6-.517,2.128,2.128,0,0,1-.9-.8,2.023,2.023,0,0,1-.282-1.035,2.17,2.17,0,0,1,.377-1.178,2.3,2.3,0,0,1,1.035-.848,4.137,4.137,0,0,1,1.554-.282,4.462,4.462,0,0,1,1.648.282,2.049,2.049,0,0,1,1.083.895,3.1,3.1,0,0,1,.423,1.319l-1.083.093a1.57,1.57,0,0,0-.565-1.176,2.164,2.164,0,0,0-1.46-.423,2.357,2.357,0,0,0-1.459.376,1.134,1.134,0,0,0-.471.894.935.935,0,0,0,.329.753,5.2,5.2,0,0,0,1.648.612,18.291,18.291,0,0,1,1.837.518,2.878,2.878,0,0,1,1.082.848,2.021,2.021,0,0,1,.331,1.177A2.15,2.15,0,0,1,343.388,5397.916Zm5.133,1.083h-1.083v-7.391h-2.731v-.989h6.639v.989h-2.777V5399Zm8.664,0-.989-2.541h-3.483l-.9,2.541H350.64l3.2-8.38h1.177l3.437,8.38Zm8.051-1.083a2.293,2.293,0,0,1-1.083.9,3.625,3.625,0,0,1-1.6.329,4.372,4.372,0,0,1-1.883-.329,2.719,2.719,0,0,1-1.7-2.5l1.035-.093a2.248,2.248,0,0,0,.331,1.036,2.032,2.032,0,0,0,.846.658,2.779,2.779,0,0,0,1.272.235,2.858,2.858,0,0,0,1.129-.187,1.34,1.34,0,0,0,.942-1.226,1.272,1.272,0,0,0-.235-.706,1.5,1.5,0,0,0-.753-.471,12.306,12.306,0,0,0-1.508-.424,9.073,9.073,0,0,1-1.6-.517,2.129,2.129,0,0,1-.9-.8,2.022,2.022,0,0,1-.282-1.035,2.17,2.17,0,0,1,.377-1.178,2.3,2.3,0,0,1,1.036-.848,4.131,4.131,0,0,1,1.554-.282,4.463,4.463,0,0,1,1.648.282,2.049,2.049,0,0,1,1.083.895,3.1,3.1,0,0,1,.423,1.319l-1.083.093a1.57,1.57,0,0,0-.565-1.176,2.164,2.164,0,0,0-1.46-.423,2.357,2.357,0,0,0-1.459.376,1.015,1.015,0,0,0-.471.894.935.935,0,0,0,.329.753,5.185,5.185,0,0,0,1.648.612,10.459,10.459,0,0,1,1.836.518,2.873,2.873,0,0,1,1.083.848,2.021,2.021,0,0,1,.331,1.177A2.151,2.151,0,0,1,365.236,5397.916Z" transform="translate(-78.867 -5387.699)" fill="#fff"/>
        <path id="Caminho_8045" data-name="Caminho 8045" d="M215.937,5397.134a2.65,2.65,0,0,0,2.072-.893,3.618,3.618,0,0,0,.8-2.5,4.329,4.329,0,0,0-.329-1.789,2.64,2.64,0,0,0-2.5-1.6,2.89,2.89,0,0,0-2.025.8,3.53,3.53,0,0,0-.848,2.685,3.611,3.611,0,0,0,.8,2.4A2.49,2.49,0,0,0,215.937,5397.134Z" transform="translate(-25.009 -5386.635)" fill="#fff"/>
        <path id="Caminho_8046" data-name="Caminho 8046" d="M151.251,5397.134a2.647,2.647,0,0,0,2.071-.893,3.612,3.612,0,0,0,.8-2.5,4.33,4.33,0,0,0-.331-1.789,2.636,2.636,0,0,0-2.5-1.6,2.893,2.893,0,0,0-2.025.8,3.53,3.53,0,0,0-.846,2.685,3.6,3.6,0,0,0,.8,2.4A2.49,2.49,0,0,0,151.251,5397.134Z" transform="translate(-50.96 -5386.635)" fill="#fff"/>
        <path id="Caminho_8047" data-name="Caminho 8047" d="M275.919,5390.422a6.936,6.936,0,0,1-.471,1.6l-.943,2.448h2.826l-.9-2.307C276.248,5391.458,276.059,5390.891,275.919,5390.422Z" transform="translate(-0.378 -5386.608)" fill="#fff"/>
      </g>
      <circle id="Elipse_114" data-name="Elipse 114" cx="11.771" cy="11.771" r="11.771" transform="translate(68.696)" fill="#fff"/>
      <circle id="Elipse_115" data-name="Elipse 115" cx="11.771" cy="11.771" r="11.771" transform="translate(113.568)" fill="#fff"/>
      <path id="Caminho_8048" data-name="Caminho 8048" d="M124.447,5385.2a1.637,1.637,0,0,1-.189-.423l-.094.423Z" transform="translate(-60.694 -5295.363)" fill="#fff"/>
      <path id="Caminho_8049" data-name="Caminho 8049" d="M178.859,5341.6H171.42a4.732,4.732,0,0,0-2.072,2.213c-5.7,15.066-11.441,30.087-17.092,44.966v13.748h3.72l16.95-44.024,9.134,44.024h9.182Z" transform="translate(-49.424 -5312.686)" fill="#fff"/>
      <path id="Caminho_8050" data-name="Caminho 8050" d="M162.544,5385.1q-8.193-21.259-16.526-42.422a4.924,4.924,0,0,0-.612-1.083h-8.051a3.849,3.849,0,0,0-1.131,2.259c-.848,4.521-1.836,8.994-2.779,13.466q-3.39,15.964-6.779,31.923h0l-2.4,12.808a1.135,1.135,0,0,0,.188.423h8.805l9.417-44.258,17.8,44.258h3.06v-13.748C163.25,5387.551,162.921,5386.327,162.544,5385.1Z" transform="translate(-60.654 -5312.686)" fill="#fff"/>
    </g>
  </g>
</svg>
